<?xml version="1.0" encoding="UTF-8"?>
<svg version="1.1" xmlns="http://www.w3.org/2000/svg" width="200" height="200">
<path d="M0 0 C66 0 132 0 200 0 C200 66 200 132 200 200 C134 200 68 200 0 200 C0 134 0 68 0 0 Z " fill="#131414" transform="translate(0,0)"/>
<path d="M0 0 C2.33052315 1.27069653 4.48672221 2.5413153 6.6875 4 C11.12880103 6.91060353 11.12880103 6.91060353 16 9 C16 9.66 16 10.32 16 11 C16.77085938 11.20238281 17.54171875 11.40476562 18.3359375 11.61328125 C24.50848767 13.94937433 29.97548174 17.55502382 35.58056641 21.00854492 C41.61636155 24.75404614 41.61636155 24.75404614 48.109375 27.5703125 C53.66374925 29.68310079 53.66374925 29.68310079 56 33 C57.41775738 40.9048046 56.72375845 49.04886389 56 57 C55.27748047 57.41137207 54.55496094 57.82274414 53.81054688 58.24658203 C38.81116191 66.7909253 23.84615648 75.38723888 8.94921875 84.109375 C8.09376465 84.60373047 7.23831055 85.09808594 6.35693359 85.60742188 C4.87026206 86.4858116 3.40099674 87.39503541 1.95947266 88.34570312 C0.14453125 89.515625 0.14453125 89.515625 -3 91 C-6.35772937 89.94503315 -9.3668201 88.34133091 -12.44140625 86.64453125 C-13.26568115 86.19086182 -14.08995605 85.73719238 -14.93920898 85.26977539 C-15.80489502 84.78887451 -16.67058105 84.30797363 -17.5625 83.8125 C-18.91420288 83.06504517 -18.91420288 83.06504517 -20.29321289 82.30249023 C-25.78571213 79.25615128 -31.24070514 76.15570734 -36.6484375 72.9609375 C-42.36270761 69.61762329 -48.12455858 66.35690638 -53.88061523 63.08618164 C-54.75661377 62.58723389 -55.6326123 62.08828613 -56.53515625 61.57421875 C-57.322854 61.12651123 -58.11055176 60.67880371 -58.92211914 60.2175293 C-63.91407179 57.29250664 -63.91407179 57.29250664 -64.65795898 54.76025391 C-66.84928432 36.72018783 -66.84928432 36.72018783 -62.39453125 30.90380859 C-57.80741623 27.09104228 -52.41372555 24.75047579 -46.98632812 22.3671875 C-41.86455359 20.02235939 -37.05846728 17.13217147 -32.1875 14.3125 C-30.25613385 13.2314178 -28.32386181 12.15195218 -26.390625 11.07421875 C-23.01482274 9.17280229 -19.69572785 7.21647051 -16.421875 5.14453125 C-15.73971924 4.71551514 -15.05756348 4.28649902 -14.35473633 3.84448242 C-13.12359428 3.06139895 -11.9011116 2.26443488 -10.69018555 1.45043945 C-6.72995943 -1.06507153 -4.45986291 -1.44425612 0 0 Z " fill="#31F1E1" transform="translate(104,32)"/>
<path d="M0 0 C9.00127268 4.34464509 17.67903764 8.86805551 26.13671875 14.20703125 C29.15212567 16.09526014 32.22112738 17.8174545 35.34765625 19.51171875 C37.6298391 20.79229558 39.87650066 22.11228623 42.12109375 23.45703125 C42.87036133 23.90449707 43.61962891 24.35196289 44.39160156 24.81298828 C45.89250634 25.71155207 47.39068454 26.61469008 48.88574219 27.52294922 C49.58731445 27.94205566 50.28888672 28.36116211 51.01171875 28.79296875 C51.94697388 29.35794067 51.94697388 29.35794067 52.90112305 29.93432617 C55.61096536 31.31020865 58.02736381 32.31498586 61 33 C63.72111664 32.2050865 63.72111664 32.2050865 66.265625 30.5625 C67.23886719 29.99660156 68.21210937 29.43070313 69.21484375 28.84765625 C70.21644531 28.23792969 71.21804687 27.62820312 72.25 27 C73.72919922 26.13181641 73.72919922 26.13181641 75.23828125 25.24609375 C79.01285009 23.02312633 82.75796804 20.75309164 86.50366211 18.48193359 C93.27905993 14.38887802 100.1540068 10.48859398 107.0625 6.625 C108.77083008 5.66400391 108.77083008 5.66400391 110.51367188 4.68359375 C111.59326172 4.07902344 112.67285156 3.47445312 113.78515625 2.8515625 C114.76363525 2.30322754 115.74211426 1.75489258 116.75024414 1.18994141 C119 0 119 0 120 0 C121.52793633 7.57895599 122.75762781 15.59998969 120 23 C114.41755617 29.11867583 106.37356402 32.33231895 98.93505859 35.66601562 C95.35415034 37.29353872 92.06302782 39.17105566 88.6875 41.1875 C87.64078125 41.78046875 86.5940625 42.3734375 85.515625 42.984375 C82.69542209 44.58972127 79.90140677 46.23680082 77.109375 47.890625 C76.25384033 48.39440674 75.39830566 48.89818848 74.5168457 49.41723633 C72.8348322 50.40861333 71.15610401 51.405592 69.48120117 52.40893555 C68.32841675 53.08629761 68.32841675 53.08629761 67.15234375 53.77734375 C66.47163818 54.18202881 65.79093262 54.58671387 65.08959961 55.00366211 C62.62542115 56.17860221 60.73297708 56.79250773 58 57 C55.45825195 55.97460938 55.45825195 55.97460938 52.73828125 54.34375 C51.71379883 53.74022705 50.68931641 53.1367041 49.63378906 52.51489258 C48.53776367 51.84997803 47.44173828 51.18506348 46.3125 50.5 C45.16593142 49.81840225 44.01845497 49.13832959 42.87011719 48.4597168 C40.46872189 47.03922662 38.0714305 45.61212615 35.67626953 44.18115234 C32.04335763 42.01753484 28.38392743 39.90234372 24.71484375 37.80078125 C24.12701614 37.46388275 23.53918854 37.12698425 22.93354797 36.77987671 C21.20595578 35.79030211 19.47798116 34.80139524 17.75 33.8125 C14.65891427 32.04289407 11.57233989 30.2713752 8.51220703 28.44873047 C6.11985394 27.00799459 6.11985394 27.00799459 3.95263672 26.10205078 C2.2890625 25.30859375 2.2890625 25.30859375 0 23 C-0.72010054 19.05705821 -0.56363573 15.24037112 -0.375 11.25 C-0.34792969 10.17105469 -0.32085937 9.09210938 -0.29296875 7.98046875 C-0.22229142 5.31828935 -0.12368401 2.66015764 0 0 Z " fill="#30F1E1" transform="translate(40,112)"/>
<path d="M0 0 C3.47057176 1.16391126 6.63282576 2.79546189 9.84375 4.5390625 C10.75495605 5.0335791 11.66616211 5.5280957 12.60498047 6.03759766 C13.56033691 6.56144043 14.51569336 7.0852832 15.5 7.625 C16.96590576 8.4281665 16.96590576 8.4281665 18.46142578 9.24755859 C35.23055046 18.49040506 35.23055046 18.49040506 40 22 C40 22.66 40 23.32 40 24 C36.68803022 25.8967607 33.37532578 27.79223482 30.0625 29.6875 C29.13630859 30.21794922 28.21011719 30.74839844 27.25585938 31.29492188 C22.87848998 33.79846998 18.49479721 36.28438976 14.07421875 38.7109375 C10.50927821 40.68025243 7.20591932 42.87044802 3.921875 45.27734375 C2 46 2 46 -0.21875 45.41015625 C-3.94429441 43.52122151 -7.60774828 41.5447042 -11.25 39.5 C-12.02907715 39.06510254 -12.8081543 38.63020508 -13.61083984 38.18212891 C-21.81479248 33.58111867 -29.91672793 28.80903528 -38 24 C-36.64964408 19.94893225 -34.97030058 19.59294574 -31.25 17.5625 C-29.98920251 16.86527154 -28.72881338 16.1673043 -27.46875 15.46875 C-26.7675 15.08332031 -26.06625 14.69789062 -25.34375 14.30078125 C-20.78468891 11.77050235 -16.27208032 9.15809366 -11.75 6.5625 C-9.93274463 5.52134441 -8.11506668 4.48092588 -6.296875 3.44140625 C-5.51666992 2.99482666 -4.73646484 2.54824707 -3.93261719 2.08813477 C-2.63931708 1.3599591 -1.32751346 0.66375673 0 0 Z " fill="#121616" transform="translate(99,54)"/>
<path d="M0 0 C0 4.62 0 9.24 0 14 C-0.66 14 -1.32 14 -2 14 C-2.33 15.65 -2.66 17.3 -3 19 C-4.11375 19.12375 -4.11375 19.12375 -5.25 19.25 C-8.54302595 20.14809799 -9.85976788 21.38416074 -12 24 C-12 24.66 -12 25.32 -12 26 C-12.99 26 -13.98 26 -15 26 C-15 26.66 -15 27.32 -15 28 C-18.96 28.495 -18.96 28.495 -23 29 C-23.33 30.32 -23.66 31.64 -24 33 C-25.32 33 -26.64 33 -28 33 C-28 32.34 -28 31.68 -28 31 C-28.99 30.67 -29.98 30.34 -31 30 C-31.3721042 28.67696283 -31.70630173 27.34262065 -32 26 C-32.66 25.67 -33.32 25.34 -34 25 C-34.625 21.9375 -34.625 21.9375 -35 19 C-33.7625 18.608125 -32.525 18.21625 -31.25 17.8125 C-27.22334556 16.33795049 -25.59018449 14.42274379 -23 11 C-21.68 11 -20.36 11 -19 11 C-19 10.34 -19 9.68 -19 9 C-15.535 8.505 -15.535 8.505 -12 8 C-11.67 8.66 -11.34 9.32 -11 10 C-10.67 8.35 -10.34 6.7 -10 5 C-8.35 4.67 -6.7 4.34 -5 4 C-4.67 3.01 -4.34 2.02 -4 1 C-2 0 -2 0 0 0 Z M-24 15 C-24.37125 15.45375 -24.7425 15.9075 -25.125 16.375 C-27.54264685 18.47029394 -29.95430602 19.12013285 -33 20 C-33 20.33 -33 20.66 -33 21 C-29.05272412 21.17942163 -26.4019487 21.09350689 -23 19 C-23.33 17.68 -23.66 16.36 -24 15 Z " fill="#30F2E3" transform="translate(159,115)"/>
<path d="M0 0 C9.00127268 4.34464509 17.67903764 8.86805551 26.13671875 14.20703125 C29.15212567 16.09526014 32.22112738 17.8174545 35.34765625 19.51171875 C37.6298391 20.79229558 39.87650066 22.11228623 42.12109375 23.45703125 C42.87036133 23.90449707 43.61962891 24.35196289 44.39160156 24.81298828 C45.89250634 25.71155207 47.39068454 26.61469008 48.88574219 27.52294922 C52.81576632 29.87067379 56.50581737 31.91110113 61 33 C63.81571431 32.24267038 63.81571431 32.24267038 66 31 C65.34 32.65 64.68 34.3 64 36 C62.72125 36.061875 61.4425 36.12375 60.125 36.1875 C59.04605469 36.23970703 59.04605469 36.23970703 57.9453125 36.29296875 C57.30335937 36.19628906 56.66140625 36.09960938 56 36 C55.34 35.01 54.68 34.02 54 33 C51.44816596 31.79549696 51.44816596 31.79549696 49 31 C49 30.34 49 29.68 49 29 C48.154375 28.731875 47.30875 28.46375 46.4375 28.1875 C42.86145933 26.9521405 39.46139092 25.523012 36 24 C36 23.34 36 22.68 36 22 C34.865625 21.731875 33.73125 21.46375 32.5625 21.1875 C31.386875 20.795625 30.21125 20.40375 29 20 C28.67 19.01 28.34 18.02 28 17 C24.99152582 15.77479736 24.99152582 15.77479736 22 15 C22 14.34 22 13.68 22 13 C18.7 12.34 15.4 11.68 12 11 C11.278125 12.32 10.55625 13.64 9.8125 15 C8.4453125 17.21875 8.4453125 17.21875 7 19 C4.1875 19.5 4.1875 19.5 2 19 C3.36983503 22.16115776 3.9890638 22.9927092 7 25 C6.34 25.33 5.68 25.66 5 26 C2.40551758 24.89526367 2.40551758 24.89526367 0 23 C-0.56762695 20.5480957 -0.56762695 20.5480957 -0.48828125 17.67578125 C-0.47216797 16.64775391 -0.45605469 15.61972656 -0.43945312 14.56054688 C-0.39755859 13.48869141 -0.35566406 12.41683594 -0.3125 11.3125 C-0.27866211 9.68731445 -0.27866211 9.68731445 -0.24414062 8.02929688 C-0.1851579 5.35148095 -0.10290307 2.67642973 0 0 Z " fill="#38EDDD" transform="translate(40,112)"/>
<path d="M0 0 C1.52423594 7.56060111 2.82327882 15.63696798 0 23 C-5.72185969 29.07433312 -13.67253649 32.46416473 -21.22924805 35.73925781 C-24.05138905 36.95748873 -24.05138905 36.95748873 -26.73364258 38.65917969 C-29 40 -29 40 -31 40 C-30.67 39.01 -30.34 38.02 -30 37 C-28.33333333 36.33333333 -26.66666667 35.66666667 -25 35 C-24.67 34.01 -24.34 33.02 -24 32 C-20.04 31.505 -20.04 31.505 -16 31 C-16 30.34 -16 29.68 -16 29 C-15.01 29 -14.02 29 -13 29 C-13.33 28.01 -13.66 27.02 -14 26 C-13.360625 25.896875 -12.72125 25.79375 -12.0625 25.6875 C-11.381875 25.460625 -10.70125 25.23375 -10 25 C-9.67 24.01 -9.34 23.02 -9 22 C-7.35 21.67 -5.7 21.34 -4 21 C-3.67 19.68 -3.34 18.36 -3 17 C-2.34 17 -1.68 17 -1 17 C-1 12.38 -1 7.76 -1 3 C-4.81944385 4.63075105 -4.81944385 4.63075105 -6.5625 6.625 C-8 8 -8 8 -11 8 C-10.67 9.32 -10.34 10.64 -10 12 C-10.99 12.66 -11.98 13.32 -13 14 C-13 13.01 -13 12.02 -13 11 C-15.31 11.33 -17.62 11.66 -20 12 C-20 12.66 -20 13.32 -20 14 C-21.32 13.67 -22.64 13.34 -24 13 C-20.54216583 11.01996027 -17.08364869 9.04111656 -13.625 7.0625 C-12.64015625 6.49853516 -11.6553125 5.93457031 -10.640625 5.35351562 C-9.69960937 4.81533203 -8.75859375 4.27714844 -7.7890625 3.72265625 C-6.91975098 3.22515869 -6.05043945 2.72766113 -5.15478516 2.21508789 C-1.22664256 0 -1.22664256 0 0 0 Z " fill="#4CDDD0" transform="translate(160,112)"/>
<path d="M0 0 C1.5008869 0.81086051 3.00061605 1.62386371 4.5 2.4375 C5.98886719 3.23994141 5.98886719 3.23994141 7.5078125 4.05859375 C10.07978469 5.48842616 12.60037924 6.95171997 15.1171875 8.47265625 C15.82166016 8.89039307 16.52613281 9.30812988 17.25195312 9.73852539 C18.65264518 10.57079032 20.04491336 11.41742104 21.42773438 12.27905273 C25.35651925 14.64298043 25.35651925 14.64298043 29.76953125 14.3203125 C30.50558594 13.88460937 31.24164063 13.44890625 32 13 C33.99620166 12.32204472 35.99538701 11.65266469 38 11 C38 13 38 13 36 15.0625 C32.1515227 17.54797492 29.53315471 17.69266748 25 18 C25.99 18.66 26.98 19.32 28 20 C27.34 20 26.68 20 26 20 C25.67 20.66 25.34 21.32 25 22 C24.34 21.67 23.68 21.34 23 21 C23 19.35 23 17.7 23 16 C22.34 16 21.68 16 21 16 C20.67 16.99 20.34 17.98 20 19 C18.37667033 20.38576923 16.71275535 21.72641268 15 23 C12.525 22.01 12.525 22.01 10 21 C10.33 20.34 10.66 19.68 11 19 C11.639375 18.87625 12.27875 18.7525 12.9375 18.625 C15.19851273 18.19060573 15.19851273 18.19060573 16.25 15.9375 C16.4975 15.298125 16.745 14.65875 17 14 C13.33548388 8.09605737 7.36218681 6.65416857 1 5 C0.67 3.35 0.34 1.7 0 0 Z " fill="#0B1715" transform="translate(72,107)"/>
<path d="M0 0 C9.41002278 -0.18451025 9.41002278 -0.18451025 14 1 C14.495 3.475 14.495 3.475 15 6 C9.26512317 4.1328308 9.26512317 4.1328308 6.59570312 2.79541016 C4.03403452 1.74259792 4.03403452 1.74259792 1.61914062 2.74755859 C0.80638672 3.20984863 -0.00636719 3.67213867 -0.84375 4.1484375 C-1.75471436 4.65576416 -2.66567871 5.16309082 -3.60424805 5.68579102 C-4.55984619 6.24322998 -5.51544434 6.80066895 -6.5 7.375 C-7.4794458 7.92921631 -8.4588916 8.48343262 -9.46801758 9.05444336 C-12.32536332 10.6811139 -15.16537023 12.33411942 -18 14 C-18.74169434 14.4336084 -19.48338867 14.8672168 -20.24755859 15.31396484 C-27.63906272 19.47948725 -27.63906272 19.47948725 -34 25 C-33.2575 25.268125 -32.515 25.53625 -31.75 25.8125 C-29.13363446 26.94229421 -27.19812889 28.20893202 -25 30 C-32.29247911 29.00557103 -32.29247911 29.00557103 -35 27 C-35.75 24.375 -35.75 24.375 -36 22 C-35.34 22 -34.68 22 -34 22 C-34 21.34 -34 20.68 -34 20 C-33.14535156 19.60167969 -32.29070313 19.20335938 -31.41015625 18.79296875 C-30.30542969 18.26316406 -29.20070313 17.73335937 -28.0625 17.1875 C-26.96035156 16.66542969 -25.85820313 16.14335938 -24.72265625 15.60546875 C-21.71259223 14.23205279 -21.71259223 14.23205279 -21 11 C-18.36 10.67 -15.72 10.34 -13 10 C-13 9.34 -13 8.68 -13 8 C-10.41210938 6.53515625 -10.41210938 6.53515625 -7.82421875 5.0703125 C-6.18017711 4.10571419 -4.58599412 3.05732941 -3 2 C-2.01 2 -1.02 2 0 2 C0 1.34 0 0.68 0 0 Z " fill="#47DCCB" transform="translate(95,53)"/>
<path d="M0 0 C0.66 1.32 1.32 2.64 2 4 C-0.31 4.33 -2.62 4.66 -5 5 C-5 5.99 -5 6.98 -5 8 C-6.32 8 -7.64 8 -9 8 C-10.66674321 10.91824244 -11.2432008 12.97594379 -11.1953125 16.328125 C-11.18886719 17.12734375 -11.18242188 17.9265625 -11.17578125 18.75 C-11.15902344 19.575 -11.14226563 20.4 -11.125 21.25 C-11.11597656 22.09046875 -11.10695312 22.9309375 -11.09765625 23.796875 C-11.07415817 25.86470604 -11.03828908 27.93238995 -11 30 C-9.68 30.66 -8.36 31.32 -7 32 C-7 32.66 -7 33.32 -7 34 C-6.071875 34.103125 -5.14375 34.20625 -4.1875 34.3125 C-0.77685288 35.04812977 -0.24255143 35.5624441 2 38 C4.59915538 39.19027984 4.59915538 39.19027984 7 40 C7 40.66 7 41.32 7 42 C7.721875 42.28875 8.44375 42.5775 9.1875 42.875 C10.115625 43.24625 11.04375 43.6175 12 44 C13.3303125 44.433125 13.3303125 44.433125 14.6875 44.875 C17.4022379 46.1956833 17.97953925 47.21692523 19 50 C13.62712423 47.37838889 8.44183247 44.39790258 3.2175293 41.49536133 C1.30945302 40.43580801 -0.60011846 39.37898447 -2.50976562 38.32226562 C-3.71884224 37.65120784 -4.92782978 36.97998952 -6.13671875 36.30859375 C-7.23717529 35.69814209 -8.33763184 35.08769043 -9.47143555 34.45874023 C-12 33 -12 33 -13 32 C-15.87622298 12.30775273 -15.87622298 12.30775273 -11.71972656 6.08251953 C-8.30075279 3.01122052 -4.3663156 1.39146321 0 0 Z " fill="#45DACD" transform="translate(53,57)"/>
<path d="M0 0 C2.4375 0.375 2.4375 0.375 5 1 C5.33 1.66 5.66 2.32 6 3 C6.70125 2.505 7.4025 2.01 8.125 1.5 C11.37119719 -0.1936681 13.39340156 -0.25162315 17 0 C14.17857205 2.19845212 11.30332923 4.05175488 8.19140625 5.8125 C7.27939453 6.33070313 6.36738281 6.84890625 5.42773438 7.3828125 C4.48220703 7.91648438 3.53667969 8.45015625 2.5625 9 C0.68854053 10.06203863 -1.18516555 11.12452451 -3.05859375 12.1875 C-4.30080688 12.88939453 -4.30080688 12.88939453 -5.56811523 13.60546875 C-7.28076852 14.58756649 -8.95680059 15.6349342 -10.60180664 16.7265625 C-13 18 -13 18 -16.3125 17.1875 C-17.199375 16.795625 -18.08625 16.40375 -19 16 C-19 15.67 -19 15.34 -19 15 C-16.36 15 -13.72 15 -11 15 C-10.67 14.01 -10.34 13.02 -10 12 C-8.06757953 10.37926025 -6.25484379 9.12742189 -4 8 C-3.34 8.33 -2.68 8.66 -2 9 C-1.7834375 7.88625 -1.7834375 7.88625 -1.5625 6.75 C-1.09812508 4.47972261 -0.58136431 2.24240521 0 0 Z " fill="#151518" transform="translate(114,128)"/>
<path d="M0 0 C3.37462715 0.54723683 5.08235 1.0549 8 3 C9.98799818 3.70164642 11.98698517 4.37372872 14 5 C14 5.66 14 6.32 14 7 C16.65228812 8.07525194 19.28368454 9.09456151 22 10 C22.66 10.66 23.32 11.32 24 12 C24.33 11.01 24.66 10.02 25 9 C25.66 9 26.32 9 27 9 C27.33 10.32 27.66 11.64 28 13 C29.32 13.33 30.64 13.66 32 14 C32 14.99 32 15.98 32 17 C33.175625 17.0928125 33.175625 17.0928125 34.375 17.1875 C35.24125 17.455625 36.1075 17.72375 37 18 C38.3125 20.5625 38.3125 20.5625 39 23 C34.38004936 21.3306819 30.25059261 18.98972955 26 16.5625 C25.30132812 16.16740234 24.60265625 15.77230469 23.8828125 15.36523438 C20.22513143 13.29139822 16.59443714 11.18213012 13 9 C11.90042969 8.33742187 10.80085938 7.67484375 9.66796875 6.9921875 C8.5076087 6.28679348 7.34745515 5.58105966 6.1875 4.875 C5.59001953 4.51535156 4.99253906 4.15570313 4.37695312 3.78515625 C2.90081708 2.88429151 1.44794515 1.9455103 0 1 C0 0.67 0 0.34 0 0 Z " fill="#072D2B" transform="translate(56,120)"/>
<path d="M0 0 C3.84103166 1.42286392 7.23466908 3.21539121 10.75 5.3125 C14.20717871 7.35747359 17.66177502 9.38812769 21.1875 11.3125 C24.20622913 12.96614206 27.17263565 14.69242893 30.125 16.4609375 C30.87370361 16.90783936 31.62240723 17.35474121 32.39379883 17.81518555 C33.89399925 18.71275091 35.39136624 19.61507353 36.88549805 20.52270508 C40.81554508 22.87062501 44.50570681 24.91107434 49 26 C51.81571431 25.24267038 51.81571431 25.24267038 54 24 C53.34 25.65 52.68 27.3 52 29 C50.72125 29.061875 49.4425 29.12375 48.125 29.1875 C47.04605469 29.23970703 47.04605469 29.23970703 45.9453125 29.29296875 C45.30335937 29.19628906 44.66140625 29.09960938 44 29 C43.34 28.01 42.68 27.02 42 26 C39.44816596 24.79549696 39.44816596 24.79549696 37 24 C37 23.34 37 22.68 37 22 C36.154375 21.731875 35.30875 21.46375 34.4375 21.1875 C30.86145933 19.9521405 27.46139092 18.523012 24 17 C24 16.34 24 15.68 24 15 C22.865625 14.731875 21.73125 14.46375 20.5625 14.1875 C18.7990625 13.5996875 18.7990625 13.5996875 17 13 C16.67 12.01 16.34 11.02 16 10 C12.99152582 8.77479736 12.99152582 8.77479736 10 8 C10 7.34 10 6.68 10 6 C8.9171875 5.8453125 8.9171875 5.8453125 7.8125 5.6875 C4.72206579 4.93206053 2.58256159 3.84468685 0 2 C0 1.34 0 0.68 0 0 Z " fill="#4ED6CA" transform="translate(52,119)"/>
<path d="M0 0 C5.26371362 -0.50130606 7.9090934 0.68831371 12 4 C12 4.66 12 5.32 12 6 C12.928125 6.103125 13.85625 6.20625 14.8125 6.3125 C18.22314712 7.04812977 18.75744857 7.5624441 21 10 C23.44288628 11.31068333 23.44288628 11.31068333 26 12 C26.99 11.67 27.98 11.34 29 11 C31.0625 11.625 31.0625 11.625 33 13 C33.66666667 14.66666667 34.33333333 16.33333333 35 18 C37.01735205 19.34410262 37.01735205 19.34410262 39 20 C36.65942846 20.82193222 35.4410801 21.16347293 33.07714844 20.28735352 C32.4277832 19.90506592 31.77841797 19.52277832 31.109375 19.12890625 C30.40039062 18.71962891 29.69140625 18.31035156 28.9609375 17.88867188 C27.86652344 17.2322168 27.86652344 17.2322168 26.75 16.5625 C25.63238281 15.9118457 25.63238281 15.9118457 24.4921875 15.24804688 C22.65500263 14.1763557 20.82662026 13.08960023 19 12 C19 11.34 19 10.68 19 10 C17.93652344 9.85884766 17.93652344 9.85884766 16.8515625 9.71484375 C13.4995909 8.87455498 11.25057687 7.4676687 8.375 5.5625 C7.43398437 4.94503906 6.49296875 4.32757813 5.5234375 3.69140625 C4.69070312 3.13324219 3.85796875 2.57507812 3 2 C2.01 1.34 1.02 0.68 0 0 Z " fill="#073434" transform="translate(101,31)"/>
<path d="M0 0 C2 1 2 1 3 3 C2.2575 3.4125 1.515 3.825 0.75 4.25 C-2.03904474 5.8462173 -2.03904474 5.8462173 -3.875 8.125 C-6.75876939 10.66950241 -9.24140726 10.71087748 -13 11 C-13 11.66 -13 12.32 -13 13 C-19.96428571 15.27678571 -19.96428571 15.27678571 -24 14 C-23.37955811 13.64695801 -22.75911621 13.29391602 -22.11987305 12.93017578 C-19.30843676 11.32958086 -16.49795913 9.72731003 -13.6875 8.125 C-12.71103516 7.56941406 -11.73457031 7.01382813 -10.72851562 6.44140625 C-9.79072266 5.90644531 -8.85292969 5.37148437 -7.88671875 4.8203125 C-7.02264404 4.32805176 -6.15856934 3.83579102 -5.26831055 3.32861328 C-3.47589565 2.27874547 -1.72837768 1.15225179 0 0 Z " fill="#082B2B" transform="translate(141,145)"/>
<path d="M0 0 C0 2.66666667 0 5.33333333 0 8 C-0.99 8.33 -1.98 8.66 -3 9 C-1.68 9.33 -0.36 9.66 1 10 C1.33 9.34 1.66 8.68 2 8 C2.66 8 3.32 8 4 8 C3.8453125 9.1446875 3.8453125 9.1446875 3.6875 10.3125 C3.790625 11.199375 3.89375 12.08625 4 13 C6.44496043 14.71711243 6.44496043 14.71711243 9 16 C9 16.66 9 17.32 9 18 C4.60616294 16.40376856 0.71004193 14.21975667 -3.3125 11.875 C-3.95767578 11.50246094 -4.60285156 11.12992188 -5.26757812 10.74609375 C-6.84675945 9.83367787 -8.42361864 8.91724491 -10 8 C-8.76736651 4.30209954 -7.79947549 4.0645154 -4.4375 2.3125 C-3.61121094 1.87550781 -2.78492187 1.43851562 -1.93359375 0.98828125 C-1.29550781 0.66214844 -0.65742187 0.33601563 0 0 Z " fill="#06312F" transform="translate(71,70)"/>
<path d="M0 0 C1.093125 0.185625 2.18625 0.37125 3.3125 0.5625 C6.93624133 1.2578068 6.93624133 1.2578068 10 0 C12.0625 0.625 12.0625 0.625 14 2 C15.1875 4.5625 15.1875 4.5625 16 7 C16.33 7.33 16.66 7.66 17 8 C17.28106485 12.30582826 17.23180744 16.62358947 17.25 20.9375 C17.270625 22.15630859 17.29125 23.37511719 17.3125 24.63085938 C17.31765625 25.79294922 17.3228125 26.95503906 17.328125 28.15234375 C17.34214355 29.7609729 17.34214355 29.7609729 17.35644531 31.40209961 C17.18000488 32.6880603 17.18000488 32.6880603 17 34 C16.01 34.66 15.02 35.32 14 36 C13.01 35.67 12.02 35.34 11 35 C12.65 34.34 14.3 33.68 16 33 C16 25.08 16 17.16 16 9 C13.525 8.01 13.525 8.01 11 7 C9.04906292 5.98372238 7.11153494 4.94133262 5.1875 3.875 C4.21167969 3.33617187 3.23585937 2.79734375 2.23046875 2.2421875 C1.49441406 1.83226562 0.75835937 1.42234375 0 1 C0 0.67 0 0.34 0 0 Z " fill="#012D29" transform="translate(144,56)"/>
<path d="M0 0 C2.97 0.495 2.97 0.495 6 1 C6 1.66 6 2.32 6 3 C6.99 2.67 7.98 2.34 9 2 C9.33 2.66 9.66 3.32 10 4 C11.175625 4.4640625 11.175625 4.4640625 12.375 4.9375 C15 6 15 6 16.4375 7.5 C18.05067117 9.26868889 18.05067117 9.26868889 21.125 10 C22.07375 10.33 23.0225 10.66 24 11 C24.33 11.99 24.66 12.98 25 14 C26.65 14 28.3 14 30 14 C30 14.66 30 15.32 30 16 C31.65 16 33.3 16 35 16 C35 16.66 35 17.32 35 18 C35.66 18.33 36.32 18.66 37 19 C35.39624023 19.70385742 35.39624023 19.70385742 33 20 C30.05493164 18.70825195 30.05493164 18.70825195 26.66015625 16.73828125 C26.05618515 16.39121628 25.45221405 16.04415131 24.8299408 15.68656921 C23.55327976 14.94989885 22.28002899 14.20729121 21.01000977 13.45922852 C19.07960176 12.32256982 17.13974792 11.20376372 15.19726562 10.08789062 C9.86927983 7.00094176 4.73642684 3.96606078 0 0 Z " fill="#4DC8BD" transform="translate(46,138)"/>
<path d="M0 0 C0 0.66 0 1.32 0 2 C-1.31787285 3.02028865 -2.65210653 4.01971384 -4 5 C-4.33 5.66 -4.66 6.32 -5 7 C-6.98 7 -8.96 7 -11 7 C-11.33 7.99 -11.66 8.98 -12 10 C-13.64034193 10.72904086 -15.31301918 11.38655243 -17 12 C-18.68496298 12.96885372 -20.35178756 13.96986723 -22 15 C-25.2452917 17.02830731 -28.33675867 18.84318695 -32 20 C-32.99 19.67 -33.98 19.34 -35 19 C-34.47647949 18.71084717 -33.95295898 18.42169434 -33.41357422 18.1237793 C-27.29063532 14.73307641 -21.20213139 11.2845334 -15.125 7.8125 C-14.18914062 7.27947266 -13.25328125 6.74644531 -12.2890625 6.19726562 C-11.391875 5.68486328 -10.4946875 5.17246094 -9.5703125 4.64453125 C-8.76352051 4.18409424 -7.95672852 3.72365723 -7.12548828 3.24926758 C-1.59722494 0 -1.59722494 0 0 0 Z " fill="#4DD7CB" transform="translate(139,78)"/>
<path d="M0 0 C-4.12554297 3.54082035 -8.51553568 6.13582635 -13.25 8.75 C-13.9821875 9.16121094 -14.714375 9.57242188 -15.46875 9.99609375 C-20.85781769 13 -20.85781769 13 -22 13 C-22 10.69 -22 8.38 -22 6 C-21.30132812 5.97421875 -20.60265625 5.9484375 -19.8828125 5.921875 C-18.97273438 5.86515625 -18.06265625 5.8084375 -17.125 5.75 C-16.22007813 5.70359375 -15.31515625 5.6571875 -14.3828125 5.609375 C-11.83745243 5.25547339 -11.83745243 5.25547339 -10.8046875 3.015625 C-10.53914063 2.35046875 -10.27359375 1.6853125 -10 1 C-6.78548731 -0.60725635 -3.56387464 -0.05748185 0 0 Z " fill="#092B29" transform="translate(91,35)"/>
<path d="M0 0 C-0.33 1.65 -0.66 3.3 -1 5 C-5.455 5.495 -5.455 5.495 -10 6 C-10 6.66 -10 7.32 -10 8 C-10.99 8.495 -10.99 8.495 -12 9 C-12.33 9.99 -12.66 10.98 -13 12 C-15.31 12 -17.62 12 -20 12 C-20 12.66 -20 13.32 -20 14 C-20.99 14 -21.98 14 -23 14 C-23 14.66 -23 15.32 -23 16 C-24.65 16 -26.3 16 -28 16 C-23.23272383 11.8121156 -17.80588865 8.86354096 -12.3125 5.75 C-10.86907227 4.91855469 -10.86907227 4.91855469 -9.39648438 4.0703125 C-8.47802734 3.54695313 -7.55957031 3.02359375 -6.61328125 2.484375 C-5.77579346 2.00709961 -4.93830566 1.52982422 -4.07543945 1.03808594 C-2 0 -2 0 0 0 Z " fill="#063331" transform="translate(148,96)"/>
<path d="M0 0 C0.33 0 0.66 0 1 0 C0.96745117 0.66008057 0.93490234 1.32016113 0.90136719 2.00024414 C-0.1171954 13.86296835 -0.1171954 13.86296835 3.22509766 24.77636719 C6.37175737 27.49961383 10.03714976 28.89422731 14 30 C13.34 30.66 12.68 31.32 12 32 C4.9350348 31.66357309 4.9350348 31.66357309 2.0625 29.625 C-0.16409678 26.21961669 -0.1176656 23.18012366 -0.09765625 19.23828125 C-0.09443359 18.12001953 -0.09121094 17.00175781 -0.08789062 15.84960938 C-0.07951172 14.68236328 -0.07113281 13.51511719 -0.0625 12.3125 C-0.05573242 10.54422852 -0.05573242 10.54422852 -0.04882812 8.74023438 C-0.03703273 5.82677211 -0.0205727 2.91341137 0 0 Z " fill="#073030" transform="translate(39,112)"/>
<path d="M0 0 C2 1 2 1 3 3 C1.63875 3.309375 1.63875 3.309375 0.25 3.625 C-3.2399877 4.71090929 -3.2399877 4.71090929 -4.6875 8 C-7.86846946 12.12666308 -10.73879373 12.10648817 -15.734375 12.7734375 C-16.48203125 12.84820312 -17.2296875 12.92296875 -18 13 C-16.84556105 9.53668314 -16.27570341 9.26722481 -13.25390625 7.484375 C-12.49916016 7.03835937 -11.74441406 6.59234375 -10.96679688 6.1328125 C-10.17337891 5.67648438 -9.37996094 5.22015625 -8.5625 4.75 C-7.77294922 4.27820312 -6.98339844 3.80640625 -6.16992188 3.3203125 C-1.77941609 0.76011987 -1.77941609 0.76011987 0 0 Z " fill="#092623" transform="translate(91,58)"/>
<path d="M0 0 C2.76287929 1.5343758 5.39680976 3.20948082 8 5 C7.67 5.66 7.34 6.32 7 7 C3.43446845 6.38876602 0.33018302 5.40218232 -3 4 C-5.78918149 2.89459074 -5.78918149 2.89459074 -8 3 C-8 3.66 -8 4.32 -8 5 C-10.64 5.33 -13.28 5.66 -16 6 C-11.74018726 0.9884556 -6.48080738 -2.24844338 0 0 Z " fill="#4CD7CD" transform="translate(104,32)"/>
<path d="M0 0 C3.40202433 1.28924356 6.50564554 2.7652076 9.64453125 4.6015625 C10.48564453 5.09140625 11.32675781 5.58125 12.19335938 6.0859375 C13.05767578 6.59382812 13.92199219 7.10171875 14.8125 7.625 C15.69615234 8.140625 16.57980469 8.65625 17.49023438 9.1875 C19.66194789 10.45531114 21.8317818 11.72622348 24 13 C21.47946405 14.26026798 20.1457902 13.91874445 17.375 13.5625 C16.55773437 13.46066406 15.74046875 13.35882813 14.8984375 13.25390625 C14.27195312 13.17011719 13.64546875 13.08632812 13 13 C12.67 11.35 12.34 9.7 12 8 C10.7625 7.7525 9.525 7.505 8.25 7.25 C4.49618134 6.31820104 2.37995164 5.17326886 0 2 C0 1.34 0 0.68 0 0 Z " fill="#042827" transform="translate(53,143)"/>
<path d="M0 0 C2.64 1.32 5.28 2.64 8 4 C8 11.92 8 19.84 8 28 C4.7 29.65 1.4 31.3 -2 33 C0 28 0 28 1.9375 26.6875 C4 26 4 26 7 26 C7 19.07 7 12.14 7 5 C4.03 4.505 4.03 4.505 1 4 C0.67 2.68 0.34 1.36 0 0 Z " fill="#53DED3" transform="translate(152,61)"/>
<path d="M0 0 C-3.02175744 1.90861967 -6.069841 3.77040201 -9.125 5.625 C-10.40890625 6.43710938 -10.40890625 6.43710938 -11.71875 7.265625 C-18.19042 11.148627 -18.19042 11.148627 -22.6171875 10.3359375 C-23.79667969 9.67464844 -23.79667969 9.67464844 -25 9 C-25 8.67 -25 8.34 -25 8 C-22.36 8 -19.72 8 -17 8 C-16.67 7.01 -16.34 6.02 -16 5 C-13.41159561 2.67936158 -11.35229493 1.73331452 -8 1 C-7.34 0.62875 -6.68 0.2575 -6 -0.125 C-3.53207132 -1.2047188 -2.51774885 -0.74483403 0 0 Z " fill="#052C2B" transform="translate(120,135)"/>
<path d="M0 0 C0.66 0 1.32 0 2 0 C2 0.66 2 1.32 2 2 C2.928125 2.103125 3.85625 2.20625 4.8125 2.3125 C8.22314712 3.04812977 8.75744857 3.5624441 11 6 C13.59915538 7.19027984 13.59915538 7.19027984 16 8 C16 8.66 16 9.32 16 10 C16.721875 10.28875 17.44375 10.5775 18.1875 10.875 C19.115625 11.24625 20.04375 11.6175 21 12 C22.3303125 12.433125 22.3303125 12.433125 23.6875 12.875 C26.4022379 14.1956833 26.97953925 15.21692523 28 18 C24.64464457 16.36443972 21.39546373 14.56888271 18.140625 12.7421875 C17.02558594 12.11699219 15.91054688 11.49179688 14.76171875 10.84765625 C13.59113463 10.19012411 12.42056186 9.53257177 11.25 8.875 C10.06384941 8.20955106 8.87765198 7.54418558 7.69140625 6.87890625 C4.79380899 5.25342486 1.896693 3.62709211 -1 2 C-0.67 1.34 -0.34 0.68 0 0 Z " fill="#4BCFBF" transform="translate(44,89)"/>
<path d="M0 0 C1.65 0 3.3 0 5 0 C5.33 0.66 5.66 1.32 6 2 C2.54565686 4.00695291 -0.9141063 6.00436779 -4.375 8 C-5.35984375 8.57234375 -6.3446875 9.1446875 -7.359375 9.734375 C-8.77089844 10.54648438 -8.77089844 10.54648438 -10.2109375 11.375 C-11.08024902 11.87773437 -11.94956055 12.38046875 -12.84521484 12.8984375 C-15 14 -15 14 -17 14 C-16.67 13.01 -16.34 12.02 -16 11 C-14.33333333 10.33333333 -12.66666667 9.66666667 -11 9 C-10.67 8.01 -10.34 7.02 -10 6 C-7.36 5.67 -4.72 5.34 -2 5 C-2 4.34 -2 3.68 -2 3 C-1.01 3 -0.02 3 1 3 C0.67 2.01 0.34 1.02 0 0 Z " fill="#4BD6C9" transform="translate(146,138)"/>
<path d="M0 0 C3.96 1.98 7.92 3.96 12 6 C8 7 8 7 1 3 C1 8.94 1 14.88 1 21 C1.66 21 2.32 21 3 21 C3.33 21.66 3.66 22.32 4 23 C4.99 23.66 5.98 24.32 7 25 C6.34 25.33 5.68 25.66 5 26 C2.40551758 24.89526367 2.40551758 24.89526367 0 23 C-0.56762695 20.5480957 -0.56762695 20.5480957 -0.48828125 17.67578125 C-0.47216797 16.64775391 -0.45605469 15.61972656 -0.43945312 14.56054688 C-0.39755859 13.48869141 -0.35566406 12.41683594 -0.3125 11.3125 C-0.27866211 9.68731445 -0.27866211 9.68731445 -0.24414062 8.02929688 C-0.18517543 5.35227695 -0.09549442 2.67596588 0 0 Z " fill="#53D7C9" transform="translate(40,112)"/>
<path d="M0 0 C0.66 0.33 1.32 0.66 2 1 C1.67 8.59 1.34 16.18 1 24 C0.34 23.67 -0.32 23.34 -1 23 C-2.62000677 15.38596818 -3.06062764 7.26899065 0 0 Z " fill="#042F2E" transform="translate(39,64)"/>
<path d="M0 0 C6 3 12 6 18 9 C16.3125 10.1875 16.3125 10.1875 14 11 C11.6875 9.8125 11.6875 9.8125 9 8 C6.69382337 6.92378424 4.35425552 5.96939933 2 5 C1.67 5.66 1.34 6.32 1 7 C1 6.34 1 5.68 1 5 C0.34 5 -0.32 5 -1 5 C-1.33 5.99 -1.66 6.98 -2 8 C-1.47731534 5.23723823 -0.89130413 2.6739124 0 0 Z " fill="#032C29" transform="translate(83,160)"/>
<path d="M0 0 C3.84103166 1.42286392 7.23466908 3.21539121 10.75 5.3125 C15.78918506 8.29360205 20.86563622 11.18647237 26 14 C22.68604014 15.08784335 22.16419665 15.07262544 18.75 13.5625 C17.8425 13.046875 16.935 12.53125 16 12 C16 11.34 16 10.68 16 10 C14.02 9.34 12.04 8.68 10 8 C10 7.34 10 6.68 10 6 C8.9171875 5.8453125 8.9171875 5.8453125 7.8125 5.6875 C4.72206579 4.93206053 2.58256159 3.84468685 0 2 C0 1.34 0 0.68 0 0 Z " fill="#4DC8BC" transform="translate(52,119)"/>
<path d="M0 0 C6.68412752 3.63566563 13.35556707 7.29224236 20 11 C19.67 11.66 19.34 12.32 19 13 C17.0625 12.625 17.0625 12.625 15 12 C14.67 11.34 14.34 10.68 14 10 C9.77930712 7.5881755 5.66581991 6.21311318 1 5 C0.67 3.35 0.34 1.7 0 0 Z " fill="#082C2E" transform="translate(72,107)"/>
<path d="M0 0 C0 0.99 0 1.98 0 3 C-1.32 3 -2.64 3 -4 3 C-4 4.98 -4 6.96 -4 9 C-5.32 9 -6.64 9 -8 9 C-8 6.03 -8 3.06 -8 0 C-5.13822943 -1.43088528 -3.06624227 -0.59991697 0 0 Z " fill="#2DF3E3" transform="translate(50,119)"/>
<path d="M0 0 C-2.4486041 1.95888328 -4.94682957 3.55682303 -7.6875 5.0625 C-11.03565915 6.61609514 -11.03565915 6.61609514 -12 9 C-11.2575 9.268125 -10.515 9.53625 -9.75 9.8125 C-7.13363446 10.94229421 -5.19812889 12.20893202 -3 14 C-10.29247911 13.00557103 -10.29247911 13.00557103 -13 11 C-13.75 8.375 -13.75 8.375 -14 6 C-13.34 6 -12.68 6 -12 6 C-12 5.34 -12 4.68 -12 4 C-4.71428571 -0.57142857 -4.71428571 -0.57142857 0 0 Z " fill="#48CFC1" transform="translate(73,69)"/>
<path d="M0 0 C-0.33 1.65 -0.66 3.3 -1 5 C-1.99 4.67 -2.98 4.34 -4 4 C-6.34937161 4.89994345 -8.50991652 6.03724979 -10.74609375 7.1875 C-13.3173536 8.1144013 -14.47253701 7.92117102 -17 7 C-14.73595458 5.63319847 -12.46498979 4.28155555 -10.1875 2.9375 C-9.54490234 2.54755859 -8.90230469 2.15761719 -8.24023438 1.75585938 C-3.33984375 -1.11328125 -3.33984375 -1.11328125 0 0 Z " fill="#09332F" transform="translate(160,137)"/>
<path d="M0 0 C-1.2983339 2.89628331 -2.45322053 5.0679604 -5 7 C-8.94680759 8.31560253 -12.90917676 9.25621396 -17 10 C-14.38772848 7.04185281 -11.33429693 5.28123892 -7.9375 3.3125 C-6.87402344 2.68988281 -5.81054688 2.06726563 -4.71484375 1.42578125 C-2 0 -2 0 0 0 Z " fill="#44CDC3" transform="translate(136,126)"/>
<path d="M0 0 C0.72058594 0.38542969 1.44117187 0.77085937 2.18359375 1.16796875 C0.99609375 2.66796875 0.99609375 2.66796875 -0.81640625 4.16796875 C-1.99203125 4.13703125 -1.99203125 4.13703125 -3.19140625 4.10546875 C-6.00344184 3.90288494 -6.00344184 3.90288494 -8.25390625 6.16796875 C-11.35574695 8.58891759 -12.97999347 8.52484436 -16.81640625 8.16796875 C-13.90827035 5.94489027 -10.95461753 3.84117449 -7.87890625 1.85546875 C-7.04488281 1.30246094 -6.21085937 0.74945313 -5.3515625 0.1796875 C-2.81640625 -0.83203125 -2.81640625 -0.83203125 0 0 Z " fill="#083434" transform="translate(117.81640625,160.83203125)"/>
<path d="M0 0 C0.99 0 1.98 0 3 0 C3 0.66 3 1.32 3 2 C5.97 2 8.94 2 12 2 C9.16747846 4.83252154 7.7135245 5.85737708 4 7 C3.34 6.67 2.68 6.34 2 6 C2 5.34 2 4.68 2 4 C1.01 4 0.02 4 -1 4 C-0.67 2.68 -0.34 1.36 0 0 Z " fill="#38EDE5" transform="translate(106,110)"/>
<path d="M0 0 C3.93673644 1.31224548 6.22719294 2.91910327 9 6 C8.67 6.99 8.34 7.98 8 9 C8 8.34 8 7.68 8 7 C5.36 7 2.72 7 0 7 C0 7.66 0 8.32 0 9 C-0.99 8.67 -1.98 8.34 -3 8 C-2.2575 7.4121875 -2.2575 7.4121875 -1.5 6.8125 C0.45593143 4.44908285 0.24207973 2.98564997 0 0 Z " fill="#0D1C1F" transform="translate(64,103)"/>
<path d="M0 0 C0.88042969 0.51691406 1.76085937 1.03382812 2.66796875 1.56640625 C3.84071663 2.23252704 5.01391795 2.89784997 6.1875 3.5625 C6.76564453 3.90474609 7.34378906 4.24699219 7.93945312 4.59960938 C10.83534396 6.21934493 12.58068001 7.0408683 15.92578125 6.71484375 C16.61027344 6.47894531 17.29476562 6.24304688 18 6 C17.67 6.99 17.34 7.98 17 9 C13.04 8.67 9.08 8.34 5 8 C4.67 6.68 4.34 5.36 4 4 C3.01 4 2.02 4 1 4 C0.67 2.68 0.34 1.36 0 0 Z " fill="#49DBCE" transform="translate(86,92)"/>
<path d="M0 0 C0.66 0 1.32 0 2 0 C2 2.31 2 4.62 2 7 C-1.85756507 9.15305957 -4.55129785 10.39253254 -9 10 C-9 9.34 -9 8.68 -9 8 C-8.34 8 -7.68 8 -7 8 C-6.67 7.01 -6.34 6.02 -6 5 C-4.35 4.67 -2.7 4.34 -1 4 C-0.67 2.68 -0.34 1.36 0 0 Z " fill="#44DED0" transform="translate(157,129)"/>
<path d="M0 0 C1.98 0 3.96 0 6 0 C3.21503399 3.24741424 -0.39536751 5.16089095 -4.0625 7.25 C-5.01866211 7.81460938 -5.01866211 7.81460938 -5.99414062 8.390625 C-7.6266499 9.32643643 -9.31071511 10.17105723 -11 11 C-11.66 10.67 -12.32 10.34 -13 10 C-11.625 8.5 -11.625 8.5 -10 7 C-9.34 7 -8.68 7 -8 7 C-7.67 6.01 -7.34 5.02 -7 4 C-3.535 3.505 -3.535 3.505 0 3 C0 2.01 0 1.02 0 0 Z " fill="#47E1CF" transform="translate(131,101)"/>
<path d="M0 0 C2.44118791 1.26413298 4.87783192 2.53592013 7.3125 3.8125 C8.00279297 4.16892578 8.69308594 4.52535156 9.40429688 4.89257812 C10.07138672 5.24384766 10.73847656 5.59511719 11.42578125 5.95703125 C12.03848877 6.27647705 12.65119629 6.59592285 13.2824707 6.92504883 C15.13643272 8.08538924 16.51434256 9.40296797 18 11 C14.12049035 11 12.63334507 10.59216239 9.25 9 C8.05117188 8.443125 8.05117188 8.443125 6.828125 7.875 C6.22484375 7.58625 5.6215625 7.2975 5 7 C5 6.34 5 5.68 5 5 C4.360625 4.731875 3.72125 4.46375 3.0625 4.1875 C1 3 1 3 0 0 Z " fill="#032F29" transform="translate(46,92)"/>
<path d="M0 0 C0.20625 0.5775 0.4125 1.155 0.625 1.75 C2.48481665 4.79333634 5.04544187 6.07311426 8 8 C8 8.66 8 9.32 8 10 C6.35 10 4.7 10 3 10 C2.30289269 8.71349294 1.61757124 7.42059335 0.9375 6.125 C0.36322266 5.04605469 0.36322266 5.04605469 -0.22265625 3.9453125 C-0.47917969 3.30335937 -0.73570313 2.66140625 -1 2 C-0.67 1.34 -0.34 0.68 0 0 Z M-2 3 C-1.67 3 -1.34 3 -1 3 C-1 4.98 -1 6.96 -1 9 C-2.32 9.33 -3.64 9.66 -5 10 C-4.25 5.25 -4.25 5.25 -2 3 Z " fill="#091B1B" transform="translate(37,83)"/>
<path d="M0 0 C1.65 0 3.3 0 5 0 C1.15651589 3.25048942 -2.82398529 5.78782869 -7.1875 8.25 C-8.13012695 8.79527344 -8.13012695 8.79527344 -9.09179688 9.3515625 C-13.74647556 12 -13.74647556 12 -16 12 C-16 11.01 -16 10.02 -16 9 C-14.37750059 8.16180842 -12.75191503 7.3295884 -11.125 6.5 C-9.76761719 5.80390625 -9.76761719 5.80390625 -8.3828125 5.09375 C-6 4 -6 4 -4 4 C-4 3.34 -4 2.68 -4 2 C-2.68 2 -1.36 2 0 2 C0 1.34 0 0.68 0 0 Z " fill="#032C2B" transform="translate(64,48)"/>
<path d="M0 0 C6.75 1.75 6.75 1.75 9 4 C12.75425503 3.65238379 16.36950856 3.0165376 20 2 C20 1.34 20 0.68 20 0 C21.32 0.33 22.64 0.66 24 1 C22.28133783 2.0384211 20.54955402 3.05514635 18.8125 4.0625 C17.36810547 4.91521484 17.36810547 4.91521484 15.89453125 5.78515625 C12.58062976 7.17601099 11.34771208 7.16843847 8 6 C5.76171875 4.84375 5.76171875 4.84375 3.6875 3.5 C2.99011719 3.0565625 2.29273437 2.613125 1.57421875 2.15625 C1.05472656 1.7746875 0.53523438 1.393125 0 1 C0 0.67 0 0.34 0 0 Z " fill="#4ED0C2" transform="translate(88,162)"/>
<path d="M0 0 C0 2 0 2 -2 4.125 C-5.83204296 6.52002685 -8.59141477 6.75550352 -13 6 C-16 4.625 -16 4.625 -18 3 C-18 2.34 -18 1.68 -18 1 C-16.88625 1.4640625 -16.88625 1.4640625 -15.75 1.9375 C-14.8425 2.288125 -13.935 2.63875 -13 3 C-12.38125 3.28875 -11.7625 3.5775 -11.125 3.875 C-6.67860246 4.1365528 -4.33938365 0 0 0 Z " fill="#04312F" transform="translate(110,118)"/>
<path d="M0 0 C2.875 0.6875 2.875 0.6875 6 2 C7.125 4.5 7.125 4.5 8 7 C10.01735205 8.34410262 10.01735205 8.34410262 12 9 C9.51362798 9.90718979 8.37088794 10.14212859 5.859375 9.1796875 C3.76210627 7.88248795 1.8326314 6.65373166 0 5 C-0.5 2.1875 -0.5 2.1875 0 0 Z " fill="#071712" transform="translate(128,42)"/>
<path d="M0 0 C0.763125 0.309375 1.52625 0.61875 2.3125 0.9375 C4.18789677 1.67893593 6.08684652 2.36228217 8 3 C8 3.66 8 4.32 8 5 C9.98 5.66 11.96 6.32 14 7 C10.45465189 8.1817827 8.62850468 7.72570094 5 7 C4.05125 6.814375 3.1025 6.62875 2.125 6.4375 C1.42375 6.293125 0.7225 6.14875 0 6 C0.66 5.67 1.32 5.34 2 5 C2 4.01 2 3.02 2 2 C1.34 2 0.68 2 0 2 C0 1.34 0 0.68 0 0 Z " fill="#40D9C9" transform="translate(112,38)"/>
<path d="M0 0 C3.69876091 1.37287342 6.9514476 3.06355453 10.3125 5.125 C11.19550781 5.66382812 12.07851562 6.20265625 12.98828125 6.7578125 C13.65214844 7.16773437 14.31601563 7.57765625 15 8 C14.34 8.66 13.68 9.32 13 10 C12.01 9.67 11.02 9.34 10 9 C9.67 8.34 9.34 7.68 9 7 C6.88672575 6.09274566 6.88672575 6.09274566 4.4375 5.375 C3.19806641 4.98441406 3.19806641 4.98441406 1.93359375 4.5859375 C1.29550781 4.39257812 0.65742187 4.19921875 0 4 C0 2.68 0 1.36 0 0 Z " fill="#42DAC8" transform="translate(70,83)"/>
<path d="M0 0 C0.99 0.33 1.98 0.66 3 1 C-2.28 3.97 -7.56 6.94 -13 10 C-13.33 9.01 -13.66 8.02 -14 7 C-11.59351324 3.6910807 -8.74282984 3.28408548 -4.9375 2.52734375 C-2.69862545 2.02782103 -2.69862545 2.02782103 0 0 Z " fill="#4FDACD" transform="translate(126,152)"/>
<path d="M0 0 C0.763125 0.309375 1.52625 0.61875 2.3125 0.9375 C4.18789677 1.67893593 6.08684652 2.36228217 8 3 C8 3.66 8 4.32 8 5 C8.7425 5.103125 9.485 5.20625 10.25 5.3125 C13.1973519 6.04933797 14.78383074 6.94799142 17 9 C17 9.66 17 10.32 17 11 C12.99624358 9.5143761 9.38578153 7.63136615 5.6875 5.5 C4.61886719 4.8915625 3.55023438 4.283125 2.44921875 3.65625 C1.23685547 2.83640625 1.23685547 2.83640625 0 2 C0 1.34 0 0.68 0 0 Z " fill="#4ED4C6" transform="translate(73,106)"/>
<path d="M0 0 C1.485 0.99 1.485 0.99 3 2 C3 2.66 3 3.32 3 4 C4.65 4 6.3 4 8 4 C8 4.66 8 5.32 8 6 C9.65 6 11.3 6 13 6 C13 6.66 13 7.32 13 8 C13.66 8.33 14.32 8.66 15 9 C12.24935425 10.09641124 11.23646682 10.09988998 8.45703125 8.92578125 C7.58433594 8.39339844 6.71164063 7.86101562 5.8125 7.3125 C4.93207031 6.79300781 4.05164063 6.27351562 3.14453125 5.73828125 C0.80058328 3.83835986 0.32699984 2.9429986 0 0 Z " fill="#47D1C6" transform="translate(68,148)"/>
<path d="M0 0 C-0.625 2.375 -0.625 2.375 -2 5 C-4.9375 6.25 -4.9375 6.25 -8 7 C-8.99 7.33 -9.98 7.66 -11 8 C-11.66 7.34 -12.32 6.68 -13 6 C-11.21118264 4.99491199 -9.41885304 3.99607264 -7.625 3 C-6.62726563 2.443125 -5.62953125 1.88625 -4.6015625 1.3125 C-2 0 -2 0 0 0 Z " fill="#4ACCC2" transform="translate(119,136)"/>
<path d="M0 0 C0 2.97 0 5.94 0 9 C-0.33 8.34 -0.66 7.68 -1 7 C-1.825 6.835 -2.65 6.67 -3.5 6.5 C-4.325 6.335 -5.15 6.17 -6 6 C-6.33 5.34 -6.66 4.68 -7 4 C-6.34 4 -5.68 4 -5 4 C-4.67 3.01 -4.34 2.02 -4 1 C-2 0 -2 0 0 0 Z " fill="#39EEE0" transform="translate(159,115)"/>
<path d="M0 0 C3.71599191 -0.20086443 4.77208445 -0.1519437 8 2 C9.98799818 2.70164642 11.98698517 3.37372872 14 4 C13.67 5.32 13.34 6.64 13 8 C8.71 5.69 4.42 3.38 0 1 C0 0.67 0 0.34 0 0 Z " fill="#052E2B" transform="translate(41,112)"/>
<path d="M0 0 C1.32 0 2.64 0 4 0 C4 0.66 4 1.32 4 2 C4.72703125 2.10441406 5.4540625 2.20882812 6.203125 2.31640625 C9.25464651 3.06223902 11.17010987 4.16707204 13.75 5.9375 C14.52859375 6.46214844 15.3071875 6.98679687 16.109375 7.52734375 C18 9 18 9 19 11 C14.60616294 9.40376856 10.71004193 7.21975667 6.6875 4.875 C6.04232422 4.50246094 5.39714844 4.12992188 4.73242188 3.74609375 C3.15324055 2.83367787 1.57638136 1.91724491 0 1 C0 0.67 0 0.34 0 0 Z " fill="#52CCC2" transform="translate(110,59)"/>
<path d="M0 0 C0.33 0.99 0.66 1.98 1 3 C-2.52127761 7.5929708 -6.57747597 8.11941917 -12 9 C-10.67708855 5.03126566 -9.08850262 4.70094963 -5.4375 2.8125 C-4.42558594 2.28269531 -3.41367187 1.75289062 -2.37109375 1.20703125 C-1.58863281 0.80871094 -0.80617188 0.41039062 0 0 Z " fill="#48D2C5" transform="translate(67,49)"/>
<path d="M0 0 C4.51617599 -0.07654536 8.59085217 -0.10228696 13 1 C13.33 2.65 13.66 4.3 14 6 C11.04252596 5.03710148 8.15918654 4.07033824 5.3125 2.8125 C2.89030325 1.69610807 2.89030325 1.69610807 0 3 C0 2.01 0 1.02 0 0 Z " fill="#44D3C3" transform="translate(96,53)"/>
<path d="M0 0 C-1.55961362 0.96302356 -3.12283225 1.92021004 -4.6875 2.875 C-5.55761719 3.40867187 -6.42773438 3.94234375 -7.32421875 4.4921875 C-9.86362294 5.92315103 -12.21959704 7.12391947 -15 8 C-15.99 7.67 -16.98 7.34 -18 7 C-17.40832031 6.67386719 -16.81664063 6.34773438 -16.20703125 6.01171875 C-15.02173828 5.35623047 -15.02173828 5.35623047 -13.8125 4.6875 C-12.57886719 4.00880859 -12.57886719 4.00880859 -11.3203125 3.31640625 C-9.56799254 2.32224492 -7.86382469 1.24254979 -6.1875 0.125 C-3.54353096 -1.2347555 -2.74572053 -0.84040922 0 0 Z " fill="#45CFC0" transform="translate(122,90)"/>
<path d="M0 0 C1.65 0 3.3 0 5 0 C2.44526518 2.98052395 -0.41460439 4.46340188 -4 6 C-5.32 6 -6.64 6 -8 6 C-7.34 4.68 -6.68 3.36 -6 2 C-4.02 2 -2.04 2 0 2 C0 1.34 0 0.68 0 0 Z " fill="#052E2C" transform="translate(113,89)"/>
<path d="M0 0 C-0.103125 0.763125 -0.20625 1.52625 -0.3125 2.3125 C-0.209375 3.199375 -0.10625 4.08625 0 5 C2.44496043 6.71711243 2.44496043 6.71711243 5 8 C5 8.66 5 9.32 5 10 C0.89041233 8.54955729 -2.43258745 6.48889248 -6 4 C-2.25 0 -2.25 0 0 0 Z " fill="#0B2324" transform="translate(75,78)"/>
<path d="M0 0 C1.093125 0.185625 2.18625 0.37125 3.3125 0.5625 C6.93624133 1.2578068 6.93624133 1.2578068 10 0 C12.1875 0.9375 12.1875 0.9375 14 2 C12 4 12 4 9.25 4.3125 C5.57019712 3.9586728 3.18775479 2.82157417 0 1 C0 0.67 0 0.34 0 0 Z " fill="#12292D" transform="translate(144,56)"/>
<path d="M0 0 C2.64 0 5.28 0 8 0 C8 0.66 8 1.32 8 2 C7.360625 2.103125 6.72125 2.20625 6.0625 2.3125 C5.381875 2.539375 4.70125 2.76625 4 3 C3.67 3.99 3.34 4.98 3 6 C2.01 6.33 1.02 6.66 0 7 C0 4.69 0 2.38 0 0 Z " fill="#0A1D1E" transform="translate(69,41)"/>
<path d="M0 0 C0.33 0 0.66 0 1 0 C1 1.65 1 3.3 1 5 C-3.95 7.475 -3.95 7.475 -9 10 C-7 5 -7 5 -5.0625 3.6875 C-3 3 -3 3 0 3 C0 2.01 0 1.02 0 0 Z " fill="#49DACA" transform="translate(159,84)"/>
<path d="M0 0 C0.99 0.495 0.99 0.495 2 1 C2 7.6 2 14.2 2 21 C2.66 21.33 3.32 21.66 4 22 C4 22.66 4 23.32 4 24 C2.68 23.67 1.36 23.34 0 23 C0 15.41 0 7.82 0 0 Z " fill="#58DBCF" transform="translate(40,66)"/>
<path d="M0 0 C10.55808656 5.0022779 10.55808656 5.0022779 15 9 C9.25 8.125 9.25 8.125 7 7 C7 6.34 7 5.68 7 5 C5.68 5 4.36 5 3 5 C1.25 3.625 1.25 3.625 0 2 C0 1.34 0 0.68 0 0 Z " fill="#49D7C5" transform="translate(128,47)"/>
<path d="M0 0 C1.98 0 3.96 0 6 0 C6 0.66 6 1.32 6 2 C6.804375 2.268125 7.60875 2.53625 8.4375 2.8125 C9.7059375 3.4003125 9.7059375 3.4003125 11 4 C11.33 4.99 11.66 5.98 12 7 C12.66 7.33 13.32 7.66 14 8 C13.01 8 12.02 8 11 8 C10.67 7.01 10.34 6.02 10 5 C8.01363702 4.29373761 6.01151741 3.63106429 4 3 C1.625 1.375 1.625 1.375 0 0 Z " fill="#3AEFD9" transform="translate(60,98)"/>
<path d="M0 0 C-1.40453643 0.89434157 -2.82421869 1.76493192 -4.25 2.625 C-5.03890625 3.11226563 -5.8278125 3.59953125 -6.640625 4.1015625 C-9 5 -9 5 -11.296875 4.1484375 C-11.85890625 3.76945312 -12.4209375 3.39046875 -13 3 C-11.5903653 2.29819469 -10.17192359 1.61406042 -8.75 0.9375 C-7.96109375 0.55464844 -7.1721875 0.17179687 -6.359375 -0.22265625 C-3.74006478 -1.08564091 -2.55144824 -0.93045933 0 0 Z " fill="#4CD7C6" transform="translate(110,118)"/>
<path d="M0 0 C-4.95 2.97 -4.95 2.97 -10 6 C-10.66 5.34 -11.32 4.68 -12 4 C-8.81646865 0.10901724 -4.81837115 -1.60612372 0 0 Z " fill="#48DACA" transform="translate(149,95)"/>
<path d="M0 0 C0.66 0.33 1.32 0.66 2 1 C-0.97 3.64 -3.94 6.28 -7 9 C-7.99 8.67 -8.98 8.34 -10 8 C-8.7820245 4.34607349 -7.85603494 4.04168301 -4.5625 2.25 C-3.75941406 1.80140625 -2.95632812 1.3528125 -2.12890625 0.890625 C-1.07509766 0.44976562 -1.07509766 0.44976562 0 0 Z " fill="#4BD3C6" transform="translate(79,42)"/>
<path d="M0 0 C0.99 0 1.98 0 3 0 C3 0.66 3 1.32 3 2 C-0.96 3.98 -4.92 5.96 -9 8 C-8.67 6.68 -8.34 5.36 -8 4 C-4.5 2.3125 -4.5 2.3125 -1 1 C-0.67 0.67 -0.34 0.34 0 0 Z " fill="#032E2C" transform="translate(140,120)"/>
<path d="M0 0 C-7.71428571 6 -7.71428571 6 -11 6 C-10.6875 4.125 -10.6875 4.125 -10 2 C-6.3558226 -0.4294516 -4.28758728 -0.16179575 0 0 Z " fill="#062A29" transform="translate(131,128)"/>
<path d="M0 0 C6.75 -0.125 6.75 -0.125 9 1 C9 2.32 9 3.64 9 5 C5.22454612 3.90931332 2.52956528 3.0916909 0 0 Z " fill="#09312F" transform="translate(87,92)"/>
<path d="M0 0 C2.475 0.99 2.475 0.99 5 2 C5 2.99 5 3.98 5 5 C4.01 5 3.02 5 2 5 C1.67 5.66 1.34 6.32 1 7 C1 6.34 1 5.68 1 5 C0.34 5 -0.32 5 -1 5 C-1.33 5.99 -1.66 6.98 -2 8 C-1.47731534 5.23723823 -0.89130413 2.6739124 0 0 Z " fill="#071E1E" transform="translate(83,160)"/>
<path d="M0 0 C4.75 0.875 4.75 0.875 7 2 C7 2.99 7 3.98 7 5 C4.03 4.505 4.03 4.505 1 4 C0.67 2.68 0.34 1.36 0 0 Z " fill="#25F7E1" transform="translate(149,120)"/>
<path d="M0 0 C-0.33 1.65 -0.66 3.3 -1 5 C-3.31 5.33 -5.62 5.66 -8 6 C-6.72879117 2.18637351 -4.19078006 0 0 0 Z " fill="#072726" transform="translate(148,96)"/>
<path d="M0 0 C0 2.66666667 0 5.33333333 0 8 C-1.65 8 -3.3 8 -5 8 C-5 5 -5 5 -4 2 C-1.9375 0.8125 -1.9375 0.8125 0 0 Z " fill="#082322" transform="translate(71,70)"/>
<path d="M0 0 C-2.36944013 2.61885488 -4.83733102 4.41866551 -8 6 C-8.99 5.67 -9.98 5.34 -11 5 C-10.34 4.67 -9.68 4.34 -9 4 C-8.67 3.01 -8.34 2.02 -8 1 C-5.07175348 0.02391783 -3.04386724 -0.08226668 0 0 Z " fill="#4CE0D7" transform="translate(82,63)"/>
<path d="M0 0 C0.99 0 1.98 0 3 0 C3 0.66 3 1.32 3 2 C4.65 2 6.3 2 8 2 C7.67 2.99 7.34 3.98 7 5 C5.02 5 3.04 5 1 5 C1.33 4.01 1.66 3.02 2 2 C1.01 1.67 0.02 1.34 -1 1 C-0.67 0.67 -0.34 0.34 0 0 Z " fill="#38ECE1" transform="translate(149,124)"/>
<path d="M0 0 C2.64 0.33 5.28 0.66 8 1 C7.01 1.33 6.02 1.66 5 2 C5 2.66 5 3.32 5 4 C6.32 4.66 7.64 5.32 9 6 C8.01 6.495 8.01 6.495 7 7 C4.875 6.0625 4.875 6.0625 3 5 C3 4.01 3 3.02 3 2 C2.01 1.67 1.02 1.34 0 1 C0 0.67 0 0.34 0 0 Z " fill="#38E6CE" transform="translate(87,113)"/>
<path d="M0 0 C3.45925163 1.2491742 6.14693203 2.67527795 9 5 C6.75 5.6875 6.75 5.6875 4 6 C1.6875 4.75 1.6875 4.75 0 3 C0 2.01 0 1.02 0 0 Z " fill="#083132" transform="translate(117,64)"/>
<path d="M0 0 C0.66 0.33 1.32 0.66 2 1 C1.5 2.9375 1.5 2.9375 0 5 C-2.69658452 5.68790422 -5.2017019 5.81946464 -8 6 C-5.63404067 3.38499232 -3.13950774 1.61000397 0 0 Z " fill="#45D0C2" transform="translate(96,32)"/>
<path d="M0 0 C2.0625 0.4375 2.0625 0.4375 4 1 C2.64695791 3.70608417 1.19033456 3.96183047 -1.5625 5.125 C-2.38878906 5.47820313 -3.21507813 5.83140625 -4.06640625 6.1953125 C-4.70449219 6.46085937 -5.34257813 6.72640625 -6 7 C-6.33 6.34 -6.66 5.68 -7 5 C-6.030625 4.360625 -5.06125 3.72125 -4.0625 3.0625 C-1.23963731 1.3034741 -1.23963731 1.3034741 0 0 Z " fill="#092B22" transform="translate(98,28)"/>
<path d="M0 0 C2.625 0.9375 2.625 0.9375 5 2 C3.8125 3.5625 3.8125 3.5625 2 5 C-0.6875 4.6875 -0.6875 4.6875 -3 4 C-2.67 3.01 -2.34 2.02 -2 1 C-1.34 0.67 -0.68 0.34 0 0 Z " fill="#082B23" transform="translate(115,160)"/>
<path d="M0 0 C0.66 0.66 1.32 1.32 2 2 C1.360625 2.28875 0.72125 2.5775 0.0625 2.875 C-2.15206079 3.82823451 -2.15206079 3.82823451 -3 6 C-4.98 6 -6.96 6 -9 6 C-6.11912454 3.59927045 -3.43595166 1.52708963 0 0 Z " fill="#49D5C4" transform="translate(157,113)"/>
<path d="M0 0 C-1 3 -1 3 -3 4.0625 C-3.66 4.371875 -4.32 4.68125 -5 5 C-5.33 5.66 -5.66 6.32 -6 7 C-7.32 6.34 -8.64 5.68 -10 5 C-8.71186658 4.16121545 -7.41936744 3.32913217 -6.125 2.5 C-5.40570313 2.0359375 -4.68640625 1.571875 -3.9453125 1.09375 C-2 0 -2 0 0 0 Z " fill="#06322F" transform="translate(120,112)"/>
<path d="M0 0 C1.32 0.33 2.64 0.66 4 1 C3.34 2.32 2.68 3.64 2 5 C0.35 5 -1.3 5 -3 5 C-3 4.34 -3 3.68 -3 3 C-2.34 3 -1.68 3 -1 3 C-0.67 2.01 -0.34 1.02 0 0 Z " fill="#3FECDB" transform="translate(151,134)"/>
<path d="M0 0 C-1.28813342 0.83878455 -2.58063256 1.67086783 -3.875 2.5 C-4.59429687 2.9640625 -5.31359375 3.428125 -6.0546875 3.90625 C-8 5 -8 5 -10 5 C-9 2 -9 2 -6.6875 0.25 C-3.67809479 -1.14972335 -3.01958327 -0.95287489 0 0 Z " fill="#063433" transform="translate(160,112)"/>
<path d="M0 0 C1.98 0 3.96 0 6 0 C3.64722731 2.72426311 1.37503669 3.8141763 -2 5 C-2.66 4.34 -3.32 3.68 -4 3 C-2.68 3 -1.36 3 0 3 C0 2.01 0 1.02 0 0 Z " fill="#47D7C8" transform="translate(112,112)"/>
<path d="M0 0 C-1.28813342 0.83878455 -2.58063256 1.67086783 -3.875 2.5 C-4.59429687 2.9640625 -5.31359375 3.428125 -6.0546875 3.90625 C-8 5 -8 5 -10 5 C-9 2 -9 2 -6.125 0.25 C-3 -1 -3 -1 0 0 Z " fill="#033533" transform="translate(128,84)"/>
<path d="M0 0 C1.98 0 3.96 0 6 0 C6.66 1.32 7.32 2.64 8 4 C4.41465407 4 2.92504174 2.97637955 0 1 C0 0.67 0 0.34 0 0 Z " fill="#093839" transform="translate(152,60)"/>
<path d="M0 0 C2.6875 -0.3125 2.6875 -0.3125 6 0 C8.875 2.5 8.875 2.5 11 5 C6.87248551 4.39301257 3.6678852 2.96189209 0 1 C0 0.67 0 0.34 0 0 Z " fill="#052F2A" transform="translate(101,31)"/>
<path d="M0 0 C0.99 0.33 1.98 0.66 3 1 C2.67 2.65 2.34 4.3 2 6 C-0.475 5.01 -0.475 5.01 -3 4 C-2.67 3.01 -2.34 2.02 -2 1 C-1.34 0.67 -0.68 0.34 0 0 Z " fill="#0C2326" transform="translate(157,136)"/>
<path d="M0 0 C-2.3125 2.0625 -2.3125 2.0625 -5 4 C-5.99 3.67 -6.98 3.34 -8 3 C-5.45189726 -0.82215411 -4.39145359 -1.46381786 0 0 Z " fill="#052F2D" transform="translate(48,60)"/>
<path d="M0 0 C0 0.66 0 1.32 0 2 C-5.2734375 5.22265625 -5.2734375 5.22265625 -7 6 C-7.66 5.67 -8.32 5.34 -9 5 C-2.87096774 0 -2.87096774 0 0 0 Z " fill="#4DD2C3" transform="translate(127,106)"/>
<path d="M0 0 C2.475 0.99 2.475 0.99 5 2 C5 2.66 5 3.32 5 4 C3.35 4.66 1.7 5.32 0 6 C0 4.02 0 2.04 0 0 Z " fill="#033631" transform="translate(134,74)"/>
<path d="M0 0 C2.375 -0.125 2.375 -0.125 5 0 C5.66 0.66 6.32 1.32 7 2 C8.31747324 2.69748583 9.64914193 3.36959957 11 4 C9.4375 4.75 9.4375 4.75 7 5 C4.49713591 3.86915563 2.32992278 2.47860484 0 1 C0 0.67 0 0.34 0 0 Z " fill="#07302D" transform="translate(129,47)"/>
<path d="M0 0 C1.65 0 3.3 0 5 0 C4.34 1.32 3.68 2.64 3 4 C1.35 3.67 -0.3 3.34 -2 3 C-1.34 2.67 -0.68 2.34 0 2 C0 1.34 0 0.68 0 0 Z " fill="#1E111B" transform="translate(85,165)"/>
<path d="M0 0 C6.52307692 1.47692308 6.52307692 1.47692308 8.9375 4.125 C9.288125 4.74375 9.63875 5.3625 10 6 C6.40992874 4.66654496 3.20429093 3.1056769 0 1 C0 0.67 0 0.34 0 0 Z " fill="#49C4B8" transform="translate(88,162)"/>
<path d="M0 0 C-0.6875 1.9375 -0.6875 1.9375 -2 4 C-4.625 4.75 -4.625 4.75 -7 5 C-2.25 0 -2.25 0 0 0 Z " fill="#4DD5CB" transform="translate(136,126)"/>
<path d="M0 0 C1.65 0.33 3.3 0.66 5 1 C5 1.66 5 2.32 5 3 C2.69 3.33 0.38 3.66 -2 4 C-2 3.34 -2 2.68 -2 2 C-1.34 2 -0.68 2 0 2 C0 1.34 0 0.68 0 0 Z " fill="#3FEDE3" transform="translate(57,124)"/>
<path d="M0 0 C3.96 1.98 3.96 1.98 8 4 C7.67 4.66 7.34 5.32 7 6 C4.50638429 4.79618552 2.31856917 3.54571278 0 2 C0 1.34 0 0.68 0 0 Z " fill="#023733" transform="translate(56,98)"/>
<path d="M0 0 C-3.20336822 2.83374881 -5.78087253 3.5205537 -10 4 C-6.58908673 0.88145073 -4.68377325 -0.53528837 0 0 Z " fill="#4DD4CC" transform="translate(73,69)"/>
<path d="M0 0 C0.66 0.33 1.32 0.66 2 1 C-3.75 6 -3.75 6 -6 6 C-5 3 -5 3 -2.5625 1.25 C-1.716875 0.8375 -0.87125 0.425 0 0 Z " fill="#053D3A" transform="translate(79,65)"/>
<path d="M0 0 C-0.66 1.65 -1.32 3.3 -2 5 C-2.99 5 -3.98 5 -5 5 C-4.625 3.0625 -4.625 3.0625 -4 1 C-2 0 -2 0 0 0 Z " fill="#4DE0D3" transform="translate(119,136)"/>
<path d="M0 0 C2.91517292 1.07401108 4.77810176 1.77810176 7 4 C3 4 3 4 0 3 C0 2.01 0 1.02 0 0 Z " fill="#043134" transform="translate(41,136)"/>
<path d="M0 0 C0 0.99 0 1.98 0 3 C-1.98 3 -3.96 3 -6 3 C-6.33 2.01 -6.66 1.02 -7 0 C-3.86650268 -1.04449911 -3.01031744 -0.93423645 0 0 Z " fill="#1C161A" transform="translate(87,33)"/>
</svg>
