<?xml version="1.0" encoding="UTF-8"?>
<svg version="1.1" xmlns="http://www.w3.org/2000/svg" width="225" height="225">
<path d="M0 0 C74.25 0 148.5 0 225 0 C225 74.25 225 148.5 225 225 C150.75 225 76.5 225 0 225 C0 150.75 0 76.5 0 0 Z " fill="#4D4CFE" transform="translate(0,0)"/>
<path d="M0 0 C3.0124693 1.3834557 5.80122368 3.08120497 8.625 4.8125 C10.32109447 5.82378949 12.01772828 6.83417486 13.71484375 7.84375 C14.58737793 8.36710937 15.45991211 8.89046875 16.35888672 9.4296875 C20.60046476 11.95157971 24.89536745 14.37802231 29.1875 16.8125 C37.16553695 21.36190302 45.12171855 25.94838345 53.0625 30.5625 C54.09205811 31.15844971 55.12161621 31.75439941 56.18237305 32.3684082 C57.1444165 32.92874756 58.10645996 33.48908691 59.09765625 34.06640625 C59.94851807 34.56084229 60.79937988 35.05527832 61.67602539 35.56469727 C62.44293701 36.03834717 63.20984863 36.51199707 64 37 C64.74652832 37.43199707 65.49305664 37.86399414 66.26220703 38.30908203 C69.42572947 41.38727203 68.69268481 45.37672236 68.79101562 49.56835938 C68.79810547 50.80392578 68.80519531 52.03949219 68.8125 53.3125 C68.86986328 54.53646484 68.92722656 55.76042969 68.98632812 57.02148438 C69.06708386 65.75735478 69.06708386 65.75735478 66.29052734 68.99072266 C63.93689009 70.58937074 61.57694904 71.79693917 59 73 C57.36851338 73.94197859 55.74350677 74.89526499 54.125 75.859375 C52.41835336 76.82590103 50.7099601 77.78934826 49 78.75 C47.13491262 79.80640227 45.27033544 80.86370575 43.40625 81.921875 C42.48972656 82.44201172 41.57320313 82.96214844 40.62890625 83.49804688 C36.89793745 85.62963306 33.1967863 87.80982345 29.5 90 C21.94656348 94.47315392 14.327939 98.82812176 6.68945312 103.15429688 C5.83287109 103.64091797 4.97628906 104.12753906 4.09375 104.62890625 C3.32740234 105.06275635 2.56105469 105.49660645 1.77148438 105.94360352 C0.04063467 106.87764733 0.04063467 106.87764733 -1 108 C-7.58136794 108.78228146 -11.25422093 106.60179535 -16.625 103.25 C-18.3118829 102.23465114 -19.99940665 101.22036638 -21.6875 100.20703125 C-22.55890625 99.67803223 -23.4303125 99.1490332 -24.328125 98.60400391 C-28.71571781 95.97000493 -33.17259146 93.45979435 -37.625 90.9375 C-73.54122084 70.45877916 -73.54122084 70.45877916 -77 67 C-77.45018616 62.61518681 -77.5116615 58.2168343 -77.625 53.8125 C-77.69589844 52.57951172 -77.76679687 51.34652344 -77.83984375 50.07617188 C-78.0219472 41.19623276 -78.0219472 41.19623276 -75.29931641 38.00927734 C-72.94276847 36.42045947 -70.56939704 35.21178385 -68 34 C-66.36774789 33.01617009 -64.74527817 32.0159344 -63.1328125 31 C-61.46492193 29.99769956 -59.79564162 28.99770822 -58.125 28 C-57.30386719 27.505 -56.48273437 27.01 -55.63671875 26.5 C-50.49290033 23.41852376 -45.28187032 20.49879482 -40.0078125 17.64697266 C-34.10262032 14.41349649 -28.27634861 11.03882771 -22.4375 7.6875 C-20.53499935 6.59639889 -18.6323102 5.50562967 -16.72926331 4.41548157 C-15.0266981 3.44005946 -13.32473293 2.46359022 -11.62280273 1.48706055 C-7.32328856 -0.95065153 -4.79003021 -1.31152833 0 0 Z " fill="#FCFCFC" transform="translate(117,31)"/>
<path d="M0 0 C3.68558094 1.39127342 7.06348416 3.05355338 10.5 4.9765625 C11.54478516 5.56050781 12.58957031 6.14445313 13.66601562 6.74609375 C14.76623047 7.36613281 15.86644531 7.98617187 17 8.625 C18.13630859 9.26308594 19.27261719 9.90117187 20.44335938 10.55859375 C25.85820219 13.61280147 31.23792851 16.68952096 36.5 20 C42.88727939 24.00959709 49.43609732 27.72552554 56 31.4375 C57.10021484 32.06591797 58.20042969 32.69433594 59.33398438 33.34179688 C60.37876953 33.92896484 61.42355469 34.51613281 62.5 35.12109375 C63.4384375 35.6514624 64.376875 36.18183105 65.34375 36.72827148 C68.07559333 38.0361917 69.97224957 38.84898928 73 39 C76.11129127 37.81418186 76.11129127 37.81418186 79.3046875 35.9140625 C79.90064728 35.58193756 80.49660706 35.24981262 81.11062622 34.90762329 C83.04030292 33.82732173 84.95750735 32.72675912 86.875 31.625 C88.20384209 30.87493921 89.53327147 30.12591796 90.86328125 29.37792969 C98.41577641 25.11565117 105.90480347 20.7526201 113.3046875 16.23046875 C118.19431894 13.25471522 123.16082228 10.41149164 128.125 7.5625 C129.47851562 6.78084473 129.47851562 6.78084473 130.859375 5.98339844 C131.71273437 5.49516602 132.56609375 5.00693359 133.4453125 4.50390625 C134.20344238 4.06892822 134.96157227 3.6339502 135.74267578 3.18579102 C138.10844252 1.94303425 140.50404091 0.95035692 143 0 C145.64914042 2.64914042 144.4949723 9.55470919 144.56982422 13.13598633 C144.60638368 14.49531886 144.66086051 15.85429639 144.73388672 17.2121582 C145.32562897 28.38572447 145.32562897 28.38572447 142.31030273 32.05761719 C139.95059351 33.65835561 137.59739723 34.82709918 135 36 C133.33183548 36.9628189 131.67168881 37.93965292 130.01953125 38.9296875 C128.28571264 39.91473671 126.54997983 40.8964231 124.8125 41.875 C123.89049805 42.39819824 122.96849609 42.92139648 122.01855469 43.46044922 C119.34716343 44.97622816 116.67368217 46.48826705 114 48 C107.1162872 51.90551346 100.25201605 55.83906258 93.43603516 59.86157227 C91.24780633 61.15193826 89.0556589 62.43545004 86.86328125 63.71875 C84.60716959 65.04184225 82.38261887 66.38831144 80.16796875 67.78125 C79.03294922 68.47734375 79.03294922 68.47734375 77.875 69.1875 C77.27429688 69.57292969 76.67359375 69.95835937 76.0546875 70.35546875 C71.91600959 71.65372323 67.88654506 70.40364815 64.04760742 68.65576172 C63.07670166 68.08615723 62.1057959 67.51655273 61.10546875 66.9296875 C59.9976001 66.28773438 58.88973145 65.64578125 57.74829102 64.984375 C56.56123619 64.28146018 55.37430893 63.5783299 54.1875 62.875 C52.94977401 62.15255401 51.71140056 61.43121624 50.47241211 60.7109375 C47.91497692 59.22244068 45.3610766 57.72812766 42.80957031 56.22949219 C39.16439662 54.09156245 35.50327144 51.98245069 31.8359375 49.8828125 C1.50561751 32.50561751 1.50561751 32.50561751 -1 30 C-1.10003289 27.86646826 -1.13081048 25.72962458 -1.1328125 23.59375 C-1.13410156 22.29308594 -1.13539062 20.99242187 -1.13671875 19.65234375 C-1.13462402 18.97155762 -1.1325293 18.29077148 -1.13037109 17.58935547 C-1.1250224 15.50871485 -1.1303168 13.42829011 -1.13671875 11.34765625 C-1.13542969 10.04699219 -1.13414063 8.74632812 -1.1328125 7.40625 C-1.13168457 6.20291016 -1.13055664 4.99957031 -1.12939453 3.75976562 C-1 1 -1 1 0 0 Z " fill="#FCFCFC" transform="translate(41,124)"/>
<path d="M0 0 C3.00097656 1.37939453 3.00097656 1.37939453 6.140625 3.1328125 C6.70771179 3.44773651 7.27479858 3.76266052 7.85906982 4.08712769 C9.05475388 4.75369332 10.24802511 5.42460371 11.43896484 6.09960938 C13.22557994 7.1111736 15.02007137 8.10738321 16.81640625 9.1015625 C23.83525832 13.01863811 30.52490406 17.23366147 37 22 C35.82902029 25.51293913 35.33265499 25.65894933 32.1953125 27.3125 C31.39295166 27.74344971 30.59059082 28.17439941 29.76391602 28.6184082 C28.89307373 29.0743335 28.02223145 29.53025879 27.125 30 C21.54955992 32.96673403 16.01327558 35.94697527 10.62109375 39.23828125 C9.7707959 39.75326172 8.92049805 40.26824219 8.04443359 40.79882812 C6.41500498 41.79257763 4.7938383 42.80002861 3.18212891 43.82226562 C-2.29510389 47.13080546 -2.29510389 47.13080546 -5.65234375 46.5078125 C-6.42707031 46.01023438 -7.20179687 45.51265625 -8 45 C-8.95132813 44.48566406 -9.90265625 43.97132812 -10.8828125 43.44140625 C-12.48769531 42.51134766 -12.48769531 42.51134766 -14.125 41.5625 C-14.71321533 41.2226709 -15.30143066 40.8828418 -15.9074707 40.53271484 C-17.21240944 39.77827357 -18.5164828 39.0223341 -19.81982422 38.26513672 C-22.22213966 36.87109432 -24.62842852 35.48406637 -27.03515625 34.09765625 C-28.75271218 33.10695806 -30.47016105 32.11607425 -32.1875 31.125 C-33.01330566 30.64877197 -33.83911133 30.17254395 -34.68994141 29.68188477 C-35.85468994 29.00790649 -35.85468994 29.00790649 -37.04296875 28.3203125 C-37.73414795 27.92086426 -38.42532715 27.52141602 -39.13745117 27.10986328 C-40.79025243 26.12498525 -42.39914372 25.06723752 -44 24 C-42.49935333 19.909058 -40.19574289 18.62913645 -36.46875 16.5390625 C-35.34726563 15.90226562 -34.22578125 15.26546875 -33.0703125 14.609375 C-31.8804243 13.94752825 -30.69031891 13.28607182 -29.5 12.625 C-27.19748833 11.32627994 -24.89539905 10.02681071 -22.59375 8.7265625 C-21.47613281 8.10426758 -20.35851562 7.48197266 -19.20703125 6.84082031 C-15.46746002 4.69432464 -11.86681965 2.3667996 -8.29882812 -0.05322266 C-5.11054093 -1.36632565 -3.30320078 -0.90512903 0 0 Z " fill="#4D4CFB" transform="translate(116,62)"/>
<path d="M0 0 C1.0725 0.309375 2.145 0.61875 3.25 0.9375 C6.74839585 1.99203713 6.74839585 1.99203713 9.375 2.4375 C9.91125 2.623125 10.4475 2.80875 11 3 C11.33 3.99 11.66 4.98 12 6 C12.99 6.33 13.98 6.66 15 7 C15 14.92 15 22.84 15 31 C13.68 31 12.36 31 11 31 C10.34 32.32 9.68 33.64 9 35 C8.34 34.67 7.68 34.34 7 34 C7.495 33.505 7.495 33.505 8 33 C8.42172571 28.5935015 8.46495222 24.17367817 8.5625 19.75 C8.6562793 17.88794922 8.6562793 17.88794922 8.75195312 15.98828125 C9.12428453 9.48685546 9.12428453 9.48685546 6.17919922 4.06054688 C4.16044149 2.82302836 2.18604368 1.89452895 0 1 C0 0.67 0 0.34 0 0 Z " fill="#4C4CF9" transform="translate(176,65)"/>
<path d="M0 0 C0 0.66 0 1.32 0 2 C3.63 1.67 7.26 1.34 11 1 C6.64332324 4.77461064 1.89531372 7.47794876 -3.125 10.25 C-3.93582031 10.70890625 -4.74664062 11.1678125 -5.58203125 11.640625 C-6.75185547 12.2903125 -6.75185547 12.2903125 -7.9453125 12.953125 C-8.65187988 13.34661133 -9.35844727 13.74009766 -10.08642578 14.14550781 C-12 15 -12 15 -15 15 C-15 13.68 -15 12.36 -15 11 C-12.03 10.01 -9.06 9.02 -6 8 C-6.33 7.67 -6.66 7.34 -7 7 C-7.04063832 5.33382885 -7.042721 3.66611905 -7 2 C-2.25 0 -2.25 0 0 0 Z " fill="#4D4DF1" transform="translate(135,144)"/>
<path d="M0 0 C-0.99 0.495 -0.99 0.495 -2 1 C-2.33 1.99 -2.66 2.98 -3 4 C-3.99 4.495 -3.99 4.495 -5 5 C-5.33 5.99 -5.66 6.98 -6 8 C-6.721875 7.979375 -7.44375 7.95875 -8.1875 7.9375 C-10.91925138 7.99820559 -13.34256091 8.39258535 -16 9 C-16.33 9.99 -16.66 10.98 -17 12 C-19.60242414 13.64820195 -20.86248779 14 -24 14 C-24.33 14.66 -24.66 15.32 -25 16 C-25.66 15.01 -26.32 14.02 -27 13 C-23.44821513 10.81538638 -19.88197044 8.65557474 -16.3125 6.5 C-15.30509766 5.87996094 -14.29769531 5.25992188 -13.25976562 4.62109375 C-12.28330078 4.03457031 -11.30683594 3.44804687 -10.30078125 2.84375 C-8.95753784 2.02680664 -8.95753784 2.02680664 -7.5871582 1.19335938 C-4.8105051 -0.08740692 -3.01850584 -0.24737952 0 0 Z " fill="#F5F6F3" transform="translate(168,135)"/>
<path d="M0 0 C2.4000684 3.60010259 2.19519476 5.05343164 2.046875 9.3125 C2.00433594 10.55257812 1.96179688 11.79265625 1.91796875 13.0703125 C1.86253906 14.36710938 1.80710938 15.66390625 1.75 17 C1.71003906 18.29679687 1.67007813 19.59359375 1.62890625 20.9296875 C1.35989488 27.92398324 0.90360506 31.14459241 -3 37 C-4.32 36.67 -5.64 36.34 -7 36 C-6.02208496 35.46959106 -6.02208496 35.46959106 -5.02441406 34.9284668 C-2.69022758 33.10150964 -2.69022758 33.10150964 -2.54589844 29.90551758 C-2.5668457 28.66439209 -2.58779297 27.4232666 -2.609375 26.14453125 C-2.61786469 25.15207649 -2.61786469 25.15207649 -2.62652588 24.13957214 C-2.64888753 22.02980668 -2.69907629 19.92175048 -2.75 17.8125 C-2.7700656 16.38088394 -2.78831628 14.9492412 -2.8046875 13.51757812 C-2.84874931 10.01116485 -2.91777223 6.50574928 -3 3 C-2.34 3 -1.68 3 -1 3 C-0.67 2.01 -0.34 1.02 0 0 Z " fill="#4D4DF3" transform="translate(187,121)"/>
<path d="M0 0 C1.32 0 2.64 0 4 0 C4 0.66 4 1.32 4 2 C7.96 2.33 11.92 2.66 16 3 C16 3.99 16 4.98 16 6 C16.9793879 7.02019573 17.97895449 8.02149805 19 9 C19 9.66 19 10.32 19 11 C19.7425 10.79375 20.485 10.5875 21.25 10.375 C24.32330841 9.95591249 25.42786866 10.38050989 28 12 C27.67 13.32 27.34 14.64 27 16 C21.16721154 13.8154129 16.02619192 10.61065726 10.6875 7.4375 C9.66076172 6.83486328 8.63402344 6.23222656 7.57617188 5.61132812 C6.12114258 4.74991211 6.12114258 4.74991211 4.63671875 3.87109375 C3.74686279 3.34443115 2.85700684 2.81776855 1.94018555 2.27514648 C1.29992432 1.85434814 0.65966309 1.4335498 0 1 C0 0.67 0 0.34 0 0 Z " fill="#5350F2" transform="translate(119,32)"/>
<path d="M0 0 C-0.33 1.32 -0.66 2.64 -1 4 C-2.98 3.34 -4.96 2.68 -7 2 C-7.33 10.91 -7.66 19.82 -8 29 C-8.66 29 -9.32 29 -10 29 C-10 19.43 -10 9.86 -10 0 C-6.30581799 -1.231394 -3.7943739 -0.64432764 0 0 Z " fill="#4C4FE3" transform="translate(48,123)"/>
<path d="M0 0 C0.65742188 0.41636719 1.31484375 0.83273438 1.9921875 1.26171875 C1.6621875 2.25171875 1.3321875 3.24171875 0.9921875 4.26171875 C0.40050781 4.2875 -0.19117188 4.31328125 -0.80078125 4.33984375 C-6.32827776 4.73659717 -8.68797965 5.69785665 -13.0078125 9.26171875 C-15.96941658 10.17182119 -18.95336202 10.75597096 -22.0078125 11.26171875 C-18.80752441 7.85964937 -15.1500191 5.76906509 -11.1328125 3.44921875 C-10.07126953 2.80049805 -10.07126953 2.80049805 -8.98828125 2.13867188 C-3.70127487 -0.90849474 -3.70127487 -0.90849474 0 0 Z " fill="#5352E9" transform="translate(174.0078125,162.73828125)"/>
<path d="M0 0 C5.31027254 1.46032495 9.46330032 3.98320986 14 7 C10.71570724 9.18952851 9.79033543 9.27734162 6 9 C4.66216607 8.68521554 3.32796291 8.35412344 2 8 C1.01 8 0.02 8 -1 8 C-0.625 6.0625 -0.625 6.0625 0 4 C0.66 3.67 1.32 3.34 2 3 C1.34 2.67 0.68 2.34 0 2 C0 1.34 0 0.68 0 0 Z " fill="#514EED" transform="translate(74,119)"/>
<path d="M0 0 C0.99 0.33 1.98 0.66 3 1 C2.01 1.33 1.02 1.66 0 2 C0 10.91 0 19.82 0 29 C2.31 29.66 4.62 30.32 7 31 C7.33 32.32 7.66 33.64 8 35 C4.53923773 33.75028029 1.63066386 32.60746333 -1 30 C-1.4699707 27.01318359 -1.4699707 27.01318359 -1.42578125 23.3984375 C-1.41740234 22.10421875 -1.40902344 20.81 -1.40039062 19.4765625 C-1.38596924 18.80399414 -1.37154785 18.13142578 -1.35668945 17.43847656 C-1.31250861 15.37540187 -1.29524015 13.31348974 -1.28320312 11.25 C-1.16748564 1.16748564 -1.16748564 1.16748564 0 0 Z " fill="#E8EAF8" transform="translate(41,124)"/>
<path d="M0 0 C4.30764815 1.56641751 8.06171464 3.68336156 12 6 C8.77208445 8.1519437 7.71599191 8.20086443 4 8 C4 7.34 4 6.68 4 6 C2.35 6.66 0.7 7.32 -1 8 C-1.125 2.25 -1.125 2.25 0 0 Z " fill="#4B4BF8" transform="translate(49,104)"/>
<path d="M0 0 C0 0.66 0 1.32 0 2 C-1.98 2.99 -1.98 2.99 -4 4 C-4.33 12.25 -4.66 20.5 -5 29 C-4.01 28.67 -3.02 28.34 -2 28 C1 31.75 1 31.75 1 34 C-1.91517292 32.92598892 -3.77810176 32.22189824 -6 30 C-6.48756262 25.53941657 -6.3704032 21.04667547 -6.375 16.5625 C-6.39949219 15.30888672 -6.42398438 14.05527344 -6.44921875 12.76367188 C-6.45308594 11.56419922 -6.45695312 10.36472656 -6.4609375 9.12890625 C-6.46915527 8.02619385 -6.47737305 6.92348145 -6.48583984 5.78735352 C-6 3 -6 3 -4.09619141 1.11694336 C-2 0 -2 0 0 0 Z " fill="#ECEBF9" transform="translate(46,68)"/>
<path d="M0 0 C-1.485 1.485 -1.485 1.485 -3 3 C-2.34 4.32 -1.68 5.64 -1 7 C-4.22791555 9.1519437 -5.28400809 9.20086443 -9 9 C-9 7.66666667 -9 6.33333333 -9 5 C-9.66 4.67 -10.32 4.34 -11 4 C-9.73760288 3.13341385 -8.46472499 2.28207941 -7.1875 1.4375 C-6.47980469 0.96183594 -5.77210937 0.48617187 -5.04296875 -0.00390625 C-3 -1 -3 -1 0 0 Z " fill="#F1F3F8" transform="translate(57,63)"/>
<path d="M0 0 C1.46366342 0.39753821 2.9208935 0.81881384 4.375 1.25 C5.18710938 1.48203125 5.99921875 1.7140625 6.8359375 1.953125 C9.59429688 3.2874938 9.94310665 4.14973559 11 7 C11.13525391 9.93261719 11.13525391 9.93261719 10.9765625 13.296875 C10.925 14.50214844 10.8734375 15.70742187 10.8203125 16.94921875 C10.75585938 18.20347656 10.69140625 19.45773438 10.625 20.75 C10.56828125 22.01972656 10.5115625 23.28945312 10.453125 24.59765625 C10.31171042 27.73234615 10.16030009 30.86622836 10 34 C9.01 34 8.02 34 7 34 C7.495 33.505 7.495 33.505 8 33 C8.42172571 28.5935015 8.46495222 24.17367817 8.5625 19.75 C8.6562793 17.88794922 8.6562793 17.88794922 8.75195312 15.98828125 C9.12428453 9.48685546 9.12428453 9.48685546 6.17919922 4.06054688 C4.16044149 2.82302836 2.18604368 1.89452895 0 1 C0 0.67 0 0.34 0 0 Z " fill="#5150CE" transform="translate(176,65)"/>
<path d="M0 0 C5.29860806 1.2976183 9.34525646 3.15015702 14 6 C13.34 6.66 12.68 7.32 12 8 C11.34 8 10.68 8 10 8 C10 7.34 10 6.68 10 6 C8.906875 6.185625 7.81375 6.37125 6.6875 6.5625 C3 7 3 7 0 6 C0 5.34 0 4.68 0 4 C0.66 4 1.32 4 2 4 C2 3.34 2 2.68 2 2 C1.34 2 0.68 2 0 2 C0 1.34 0 0.68 0 0 Z " fill="#F4F6F4" transform="translate(48,129)"/>
<path d="M0 0 C2.475 0.99 2.475 0.99 5 2 C5 2.66 5 3.32 5 4 C6.093125 4.103125 7.18625 4.20625 8.3125 4.3125 C11.85559629 4.97307727 12.93243723 5.2027092 15 8 C14.67 8.66 14.34 9.32 14 10 C10.20950293 8.57250019 6.72877544 6.83763458 3.1875 4.875 C2.21167969 4.33617187 1.23585938 3.79734375 0.23046875 3.2421875 C-0.50558594 2.83226562 -1.24164063 2.42234375 -2 2 C-1.34 1.34 -0.68 0.68 0 0 Z " fill="#EDEFF3" transform="translate(75,172)"/>
<path d="M0 0 C2.12560437 0.30836232 4.25047065 0.62181614 6.375 0.9375 C8.15003906 1.19853516 8.15003906 1.19853516 9.9609375 1.46484375 C13 2 13 2 15 3 C15 3.99 15 4.98 15 6 C11.82271902 6.99612052 10.4220264 7.18606127 7.32421875 5.8203125 C6.45410156 5.26085937 5.58398438 4.70140625 4.6875 4.125 C3.80449219 3.57070312 2.92148438 3.01640625 2.01171875 2.4453125 C1.34785156 1.96835938 0.68398437 1.49140625 0 1 C0 0.67 0 0.34 0 0 Z " fill="#F8F8F7" transform="translate(89,182)"/>
<path d="M0 0 C0.33 0.66 0.66 1.32 1 2 C0.34 2 -0.32 2 -1 2 C-1 2.66 -1 3.32 -1 4 C-1.99 4 -2.98 4 -4 4 C-4.0825 4.61875 -4.165 5.2375 -4.25 5.875 C-5 8 -5 8 -6.875 9.25 C-9 10 -9 10 -12 10 C-12.33 10.66 -12.66 11.32 -13 12 C-13.66 11.01 -14.32 10.02 -15 9 C-10.05 6.03 -5.1 3.06 0 0 Z " fill="#EBEEF7" transform="translate(156,139)"/>
<path d="M0 0 C-0.33 0.66 -0.66 1.32 -1 2 C-3.32495277 2.38749213 -5.6599583 2.71758117 -8 3 C-8.99 3.33 -9.98 3.66 -11 4 C-11.226875 4.66 -11.45375 5.32 -11.6875 6 C-13 8 -13 8 -14.90234375 8.484375 C-16.92773766 8.72642559 -18.96442585 8.86867264 -21 9 C-18.42037007 6.12783471 -15.47424951 4.25098964 -12.1875 2.25 C-11.17042969 1.61578125 -10.15335938 0.9815625 -9.10546875 0.328125 C-5.51968971 -1.20541572 -3.71137266 -0.9985756 0 0 Z " fill="#5C58E4" transform="translate(116,62)"/>
<path d="M0 0 C-2.62467634 1.4797435 -5.24972493 2.95881943 -7.875 4.4375 C-8.62136719 4.85837891 -9.36773437 5.27925781 -10.13671875 5.71289062 C-11.20986328 6.31713867 -11.20986328 6.31713867 -12.3046875 6.93359375 C-12.96452637 7.30540771 -13.62436523 7.67722168 -14.30419922 8.06030273 C-15.52114651 8.73465202 -16.75558603 9.37779302 -18 10 C-17.67 8.68 -17.34 7.36 -17 6 C-16.34 6 -15.68 6 -15 6 C-15 5.34 -15 4.68 -15 4 C-14.01 4 -13.02 4 -12 4 C-12 3.34 -12 2.68 -12 2 C-10.75579353 1.4654744 -9.50429064 0.94791389 -8.25 0.4375 C-7.55390625 0.14746094 -6.8578125 -0.14257812 -6.140625 -0.44140625 C-3.67732713 -1.08420113 -2.40641843 -0.6897518 0 0 Z " fill="#ECEEF5" transform="translate(90,74)"/>
<path d="M0 0 C0.99 0.66 1.98 1.32 3 2 C-1.95 4.97 -6.9 7.94 -12 11 C-13 8 -13 8 -13 5 C-12.34 5 -11.68 5 -11 5 C-11 5.66 -11 6.32 -11 7 C-10.01 7 -9.02 7 -8 7 C-8 6.34 -8 5.68 -8 5 C-7.01 5 -6.02 5 -5 5 C-4.67 4.01 -4.34 3.02 -4 2 C-2.68 2 -1.36 2 0 2 C0 1.34 0 0.68 0 0 Z " fill="#5554E2" transform="translate(101,32)"/>
<path d="M0 0 C0.33 0 0.66 0 1 0 C1.04947698 3.93265896 1.08575578 7.86519714 1.10986328 11.7980957 C1.12485495 13.79319618 1.15026731 15.78820946 1.17578125 17.78320312 C1.18222656 19.03681641 1.18867188 20.29042969 1.1953125 21.58203125 C1.20578613 22.73936768 1.21625977 23.8967041 1.22705078 25.08911133 C1 28 1 28 -1 31 C-2.32 30.67 -3.64 30.34 -5 30 C-4.35256836 29.63285889 -3.70513672 29.26571777 -3.03808594 28.88745117 C-0.73688393 27.12934615 -0.73688393 27.12934615 -0.45410156 24.1809082 C-0.4331543 23.06546631 -0.41220703 21.95002441 -0.390625 20.80078125 C-0.35839844 19.59228516 -0.32617188 18.38378906 -0.29296875 17.13867188 C-0.27878906 15.87603516 -0.26460937 14.61339844 -0.25 13.3125 C-0.22035156 12.03826172 -0.19070312 10.76402344 -0.16015625 9.45117188 C-0.08935951 6.30071708 -0.03670953 3.1510066 0 0 Z " fill="#524FD2" transform="translate(185,127)"/>
<path d="M0 0 C0.99 0.33 1.98 0.66 3 1 C3 10.57 3 20.14 3 30 C2.67 30 2.34 30 2 30 C2 21.09 2 12.18 2 3 C0.35 3 -1.3 3 -3 3 C-2.01 2.01 -1.02 1.02 0 0 Z " fill="#DDE6FC" transform="translate(182,124)"/>
<path d="M0 0 C4.10958767 1.45044271 7.43258745 3.51110752 11 6 C10.34 6.66 9.68 7.32 9 8 C9 7.34 9 6.68 9 6 C8.34 6 7.68 6 7 6 C7 6.66 7 7.32 7 8 C6.01 7.67 5.02 7.34 4 7 C4.33 6.34 4.66 5.68 5 5 C3.02 5 1.04 5 -1 5 C-0.67 3.35 -0.34 1.7 0 0 Z " fill="#514FE8" transform="translate(89,183)"/>
<path d="M0 0 C3.63 1.98 7.26 3.96 11 6 C7 8 7 8 5 7.8125 C2.67095092 6.86632381 0.93636314 5.59058401 -1 4 C-0.34 4 0.32 4 1 4 C0.67 2.68 0.34 1.36 0 0 Z " fill="#EDEFF4" transform="translate(63,136)"/>
<path d="M0 0 C2.31 0.33 4.62 0.66 7 1 C3.80009492 3.74277578 0.99500618 5.6302836 -3 7 C-3.66 6.01 -4.32 5.02 -5 4 C-3.35 3.34 -1.7 2.68 0 2 C0 1.34 0 0.68 0 0 Z " fill="#5050ED" transform="translate(149,138)"/>
<path d="M0 0 C1.62490954 -0.02698189 3.24994633 -0.04638757 4.875 -0.0625 C5.77992187 -0.07410156 6.68484375 -0.08570312 7.6171875 -0.09765625 C10 0 10 0 12 1 C14.09821215 0.60061233 14.09821215 0.60061233 16 0 C13.44340534 3.12472681 10.96703713 4.31339742 7 5 C4.36085341 3.95600024 2.37212232 2.61304318 0 1 C0 0.67 0 0.34 0 0 Z " fill="#605DDE" transform="translate(104,104)"/>
<path d="M0 0 C1.32 0 2.64 0 4 0 C4 0.66 4 1.32 4 2 C5.216875 2.04125 6.43375 2.0825 7.6875 2.125 C11.21271475 2.53199637 12.75280133 3.31016733 15 6.0625 C15.66 7.031875 16.32 8.00125 17 9 C12.90540797 9 10.23249165 7.03072724 6.8125 5 C6.15830078 4.6184375 5.50410156 4.236875 4.83007812 3.84375 C3.21666455 2.90161068 1.60787702 1.95155734 0 1 C0 0.67 0 0.34 0 0 Z " fill="#5C5CDC" transform="translate(82,91)"/>
<path d="M0 0 C2.31 0 4.62 0 7 0 C-1.75 7 -1.75 7 -6 7 C-6 6.01 -6 5.02 -6 4 C-4.02 3.34 -2.04 2.68 0 2 C0 1.34 0 0.68 0 0 Z " fill="#5B58E5" transform="translate(169,128)"/>
<path d="M0 0 C2.97 1.65 5.94 3.3 9 5 C8.01 5.99 7.02 6.98 6 8 C3.8125 7.6875 3.8125 7.6875 2 7 C1.34 4.69 0.68 2.38 0 0 Z " fill="#F0F1F7" transform="translate(130,39)"/>
<path d="M0 0 C0 0.66 0 1.32 0 2 C0.8971875 2.2165625 0.8971875 2.2165625 1.8125 2.4375 C3.56150404 2.8872439 5.28677023 3.42892341 7 4 C7 4.66 7 5.32 7 6 C6.40832031 5.90460937 5.81664063 5.80921875 5.20703125 5.7109375 C0.55619775 5.05845515 -2.72314374 4.65462721 -7 7 C-5.84933177 3.5479953 -4.01648928 0 0 0 Z " fill="#5654E1" transform="translate(112,26)"/>
<path d="M0 0 C3.3 1.65 6.6 3.3 10 5 C10 5.33 10 5.66 10 6 C6.37 5.67 2.74 5.34 -1 5 C-1.33 4.01 -1.66 3.02 -2 2 C-1.34 2 -0.68 2 0 2 C0 1.34 0 0.68 0 0 Z " fill="#5754E9" transform="translate(122,66)"/>
<path d="M0 0 C7.42857143 -0.28571429 7.42857143 -0.28571429 11 2 C10.67 3.32 10.34 4.64 10 6 C6.40992874 4.66654496 3.20429093 3.1056769 0 1 C0 0.67 0 0.34 0 0 Z " fill="#5D5CEC" transform="translate(136,42)"/>
<path d="M0 0 C0.680625 0.33 1.36125 0.66 2.0625 1 C6.35097604 2.45990674 10.19975091 2.73856373 14.4375 1 C14.953125 0.67 15.46875 0.34 16 0 C16 0.66 16 1.32 16 2 C13.07248407 3.95167729 11.9152711 4.36553384 8.5625 4.75 C7.80066406 4.84796875 7.03882812 4.9459375 6.25390625 5.046875 C3.66902511 4.99311664 2.20359151 4.30508837 0 3 C0 2.01 0 1.02 0 0 Z " fill="#5957E1" transform="translate(104,136)"/>
<path d="M0 0 C0.33 0.66 0.66 1.32 1 2 C-2.01148016 5.47478479 -4.50735835 6.97043629 -9 8 C-10.32 7.67 -11.64 7.34 -13 7 C-8.71 4.69 -4.42 2.38 0 0 Z " fill="#6160DB" transform="translate(133,128)"/>
<path d="M0 0 C0.99 0.66 1.98 1.32 3 2 C1.77974937 5.6607519 0.873509 5.92339441 -2.4375 7.6875 C-3.24058594 8.12449219 -4.04367188 8.56148437 -4.87109375 9.01171875 C-7 10 -7 10 -9 10 C-8.01958581 7.54896452 -7.3486182 6.23241214 -5.125 4.75 C-3 4 -3 4 1 4 C0.67 2.68 0.34 1.36 0 0 Z " fill="#5956DD" transform="translate(150,82)"/>
<path d="M0 0 C1.45880109 0.14107747 2.91703551 0.28802415 4.375 0.4375 C5.59316406 0.55931641 5.59316406 0.55931641 6.8359375 0.68359375 C9 1 9 1 11 2 C11.625 4.0625 11.625 4.0625 12 6 C11.01 6.495 11.01 6.495 10 7 C7.6171875 5.8203125 7.6171875 5.8203125 4.875 4.125 C3.96492187 3.57070313 3.05484375 3.01640625 2.1171875 2.4453125 C1.41851562 1.96835937 0.71984375 1.49140625 0 1 C0 0.67 0 0.34 0 0 Z " fill="#5A56E8" transform="translate(164,58)"/>
<path d="M0 0 C3.375 0.3125 3.375 0.3125 7 1 C7.66 1.99 8.32 2.98 9 4 C10.2684375 4.495 10.2684375 4.495 11.5625 5 C12.7690625 5.495 12.7690625 5.495 14 6 C14.33 6.99 14.66 7.98 15 9 C11.32305352 7.62859834 8.04681411 5.96304199 4.6875 3.9375 C3.80449219 3.41027344 2.92148438 2.88304687 2.01171875 2.33984375 C1.34785156 1.89769531 0.68398437 1.45554688 0 1 C0 0.67 0 0.34 0 0 Z " fill="#5D5BE1" transform="translate(64,136)"/>
<path d="M0 0 C4.50802601 1.25805377 7.4912812 2.90407165 11 6 C8.36 5.67 5.72 5.34 3 5 C3 5.66 3 6.32 3 7 C2.01 6.67 1.02 6.34 0 6 C0.33 5.34 0.66 4.68 1 4 C1.66 4 2.32 4 3 4 C3 3.34 3 2.68 3 2 C2.01 2 1.02 2 0 2 C0 1.34 0 0.68 0 0 Z " fill="#5657E3" transform="translate(90,128)"/>
<path d="M0 0 C4.30764815 1.56641751 8.06171464 3.68336156 12 6 C10.02 6.99 10.02 6.99 8 8 C6 6.625 6 6.625 4 5 C4 4.34 4 3.68 4 3 C2.68 2.67 1.36 2.34 0 2 C0 1.34 0 0.68 0 0 Z " fill="#EBEEF6" transform="translate(89,96)"/>
<path d="M0 0 C2.4375 0 2.4375 0 5 1 C6.8125 4.0625 6.8125 4.0625 8 7 C4.40608886 5.66511872 1.24509304 4.03977277 -2 2 C-1.34 1.34 -0.68 0.68 0 0 Z " fill="#EBEFF3" transform="translate(98,129)"/>
<path d="M0 0 C-2.72478774 3.36591427 -6.06856792 4.44226276 -10 6 C-10.33 4.35 -10.66 2.7 -11 1 C-10.01 1.495 -10.01 1.495 -9 2 C-5.5647952 -0.29013653 -4.014669 -0.17842973 0 0 Z " fill="#5453EB" transform="translate(75,50)"/>
<path d="M0 0 C1.134375 0.020625 2.26875 0.04125 3.4375 0.0625 C3.1075 1.0525 2.7775 2.0425 2.4375 3.0625 C-0.625 4.25 -0.625 4.25 -3.5625 5.0625 C-4.125 3.125 -4.125 3.125 -4.5625 1.0625 C-3.5625 0.0625 -3.5625 0.0625 0 0 Z " fill="#F1F2F6" transform="translate(139.5625,120.9375)"/>
<path d="M0 0 C3.96 1.98 3.96 1.98 8 4 C7 6 7 6 6 7 C4.33382885 7.04063832 2.66611905 7.042721 1 7 C1.66 6.01 2.32 5.02 3 4 C2.01 3.34 1.02 2.68 0 2 C0 1.34 0 0.68 0 0 Z " fill="#F2F3FA" transform="translate(76,144)"/>
<path d="M0 0 C-0.33 1.32 -0.66 2.64 -1 4 C-2.3921875 3.505 -2.3921875 3.505 -3.8125 3 C-6.92029291 1.85032996 -6.92029291 1.85032996 -10 2 C-10 1.34 -10 0.68 -10 0 C-6.30581799 -1.231394 -3.7943739 -0.64432764 0 0 Z " fill="#5956EC" transform="translate(48,123)"/>
<path d="M0 0 C3.63 1.98 7.26 3.96 11 6 C8.11301479 7.4434926 6.10530768 6.63373626 3 6 C2.01 5.67 1.02 5.34 0 5 C0.66 5 1.32 5 2 5 C1.34 3.35 0.68 1.7 0 0 Z " fill="#6564E0" transform="translate(133,72)"/>
<path d="M0 0 C1.65 0 3.3 0 5 0 C1.18765077 3.3502463 -2.33285711 5.16974789 -7 7 C-7 6.34 -7 5.68 -7 5 C-6.34 5 -5.68 5 -5 5 C-5 4.34 -5 3.68 -5 3 C-3.68 3 -2.36 3 -1 3 C-0.67 2.01 -0.34 1.02 0 0 Z " fill="#E5E6F9" transform="translate(133,181)"/>
<path d="M0 0 C0 0.66 0 1.32 0 2 C-1.32 2.33 -2.64 2.66 -4 3 C-4 4.32 -4 5.64 -4 7 C-6.475 6.01 -6.475 6.01 -9 5 C-6.45523312 2.20075644 -3.92372883 0 0 0 Z " fill="#595AE3" transform="translate(168,109)"/>
<path d="M0 0 C4.30764815 1.56641751 8.06171464 3.68336156 12 6 C9 8 9 8 7 8 C7 7.01 7 6.02 7 5 C5.5459375 4.5978125 5.5459375 4.5978125 4.0625 4.1875 C3.051875 3.795625 2.04125 3.40375 1 3 C0.67 2.01 0.34 1.02 0 0 Z " fill="#5B58E0" transform="translate(49,104)"/>
<path d="M0 0 C0.33 0.66 0.66 1.32 1 2 C-2.88309282 5.64775386 -5.71201818 6.58525633 -11 7 C-7.54319097 4.23455278 -3.85658398 2.15078722 0 0 Z " fill="#E6E9F7" transform="translate(124,102)"/>
<path d="M0 0 C1.32 0 2.64 0 4 0 C4 0.66 4 1.32 4 2 C6.97 2.495 6.97 2.495 10 3 C10 3.66 10 4.32 10 5 C10.66 5 11.32 5 12 5 C12 5.66 12 6.32 12 7 C7.69235185 5.43358249 3.93828536 3.31663844 0 1 C0 0.67 0 0.34 0 0 Z " fill="#5854DB" transform="translate(119,32)"/>
<path d="M0 0 C0 0.66 0 1.32 0 2 C-0.99 2.33 -1.98 2.66 -3 3 C-4.38576923 4.62332967 -5.72641268 6.28724465 -7 8 C-7 7.34 -7 6.68 -7 6 C-7.99 5.67 -8.98 5.34 -10 5 C-8.71186658 4.16121545 -7.41936744 3.32913217 -6.125 2.5 C-5.40570313 2.0359375 -4.68640625 1.571875 -3.9453125 1.09375 C-2 0 -2 0 0 0 Z " fill="#5B5BE1" transform="translate(148,176)"/>
<path d="M0 0 C0 1.32 0 2.64 0 4 C0.66 4.66 1.32 5.32 2 6 C-3.53846154 5.38461538 -3.53846154 5.38461538 -5.875 3.4375 C-6.24625 2.963125 -6.6175 2.48875 -7 2 C-2.25 0 -2.25 0 0 0 Z " fill="#EBEBEF" transform="translate(118,162)"/>
<path d="M0 0 C3.59391114 1.33488128 6.75490696 2.96022723 10 5 C8.125 5.625 8.125 5.625 6 6 C5.34 5.34 4.68 4.68 4 4 C1.42938689 3.35232207 1.42938689 3.35232207 -1 3 C-0.67 2.01 -0.34 1.02 0 0 Z " fill="#5653E4" transform="translate(49,160)"/>
<path d="M0 0 C2.97 0.33 5.94 0.66 9 1 C6 4 6 4 3 5 C1.5 3.625 1.5 3.625 0 2 C0 1.34 0 0.68 0 0 Z " fill="#585AEA" transform="translate(128,149)"/>
<path d="M0 0 C0 0.66 0 1.32 0 2 C-0.99 2 -1.98 2 -3 2 C-2.67 2.99 -2.34 3.98 -2 5 C-4.64 5.33 -7.28 5.66 -10 6 C-4.4 0 -4.4 0 0 0 Z " fill="#5D5EE2" transform="translate(159,114)"/>
<path d="M0 0 C0.33 0.99 0.66 1.98 1 3 C-0.375 4.5 -0.375 4.5 -2 6 C-2.66 6 -3.32 6 -4 6 C-4.33 4.68 -4.66 3.36 -5 2 C-2 0 -2 0 0 0 Z " fill="#4B48F2" transform="translate(133,72)"/>
<path d="M0 0 C1.98 0.99 3.96 1.98 6 3 C5.01 4.32 4.02 5.64 3 7 C2.01 6.67 1.02 6.34 0 6 C0.33 5.34 0.66 4.68 1 4 C0.60061233 1.90178785 0.60061233 1.90178785 0 0 Z " fill="#E9EBF6" transform="translate(78,89)"/>
<path d="M0 0 C0.66 0.66 1.32 1.32 2 2 C1.34 2 0.68 2 0 2 C0 2.66 0 3.32 0 4 C-2.97 4.66 -5.94 5.32 -9 6 C-6.07175348 3.07175348 -3.7020007 1.72760033 0 0 Z " fill="#E4E7F9" transform="translate(152,86)"/>
<path d="M0 0 C4.455 0.99 4.455 0.99 9 2 C8.67 3.32 8.34 4.64 8 6 C6.66402348 5.19185349 5.331275 4.37836819 4 3.5625 C3.2575 3.11003906 2.515 2.65757812 1.75 2.19140625 C1.1725 1.79824219 0.595 1.40507812 0 1 C0 0.67 0 0.34 0 0 Z " fill="#E6E7F6" transform="translate(89,182)"/>
<path d="M0 0 C-2.68841859 2.25245881 -4.64641875 3.88213958 -8 5 C-8 3.68 -8 2.36 -8 1 C-5.07175348 0.02391783 -3.04386724 -0.08226668 0 0 Z " fill="#5E58E6" transform="translate(146,145)"/>
<path d="M0 0 C1.65 0.33 3.3 0.66 5 1 C5 1.99 5 2.98 5 4 C4.01 4.33 3.02 4.66 2 5 C1.01 4.34 0.02 3.68 -1 3 C-0.67 2.01 -0.34 1.02 0 0 Z " fill="#F3F4F5" transform="translate(121,129)"/>
<path d="M0 0 C1.46366342 0.39753821 2.9208935 0.81881384 4.375 1.25 C5.18710938 1.48203125 5.99921875 1.7140625 6.8359375 1.953125 C9.45785454 3.2214892 9.99382318 4.32423308 11 7 C7.22272911 5.18690997 3.62730178 3.0926741 0 1 C0 0.67 0 0.34 0 0 Z " fill="#5859DD" transform="translate(176,65)"/>
<path d="M0 0 C3.37503669 1.1858237 5.64722731 2.27573689 8 5 C6.02 5 4.04 5 2 5 C1.34 3.35 0.68 1.7 0 0 Z " fill="#EFEEF9" transform="translate(169,62)"/>
<path d="M0 0 C-0.33 0.99 -0.66 1.98 -1 3 C-3.5625 4.1875 -3.5625 4.1875 -6 5 C-6.33 4.01 -6.66 3.02 -7 2 C-4.35261084 0.5393715 -3.10551666 0 0 0 Z " fill="#F0F2F3" transform="translate(144,176)"/>
<path d="M0 0 C1.65 0 3.3 0 5 0 C4.67 1.65 4.34 3.3 4 5 C1.525 4.01 1.525 4.01 -1 3 C-0.67 2.01 -0.34 1.02 0 0 Z " fill="#5C5AEA" transform="translate(56,129)"/>
<path d="M0 0 C2.91517292 1.07401108 4.77810176 1.77810176 7 4 C5.35 4.33 3.7 4.66 2 5 C1.34 3.35 0.68 1.7 0 0 Z " fill="#5552E9" transform="translate(64,113)"/>
<path d="M0 0 C0.99 0.33 1.98 0.66 3 1 C1.625 2.5 1.625 2.5 0 4 C-0.66 4 -1.32 4 -2 4 C-2.66 4.99 -3.32 5.98 -4 7 C-4 5.68 -4 4.36 -4 3 C-2.1875 1.1875 -2.1875 1.1875 0 0 Z " fill="#5D57E2" transform="translate(77,80)"/>
<path d="M0 0 C0.99 0.33 1.98 0.66 3 1 C2.01 1.33 1.02 1.66 0 2 C-0.33 2.99 -0.66 3.98 -1 5 C-2.65 5 -4.3 5 -6 5 C-5.67 4.34 -5.34 3.68 -5 3 C-4.01 3 -3.02 3 -2 3 C-2 2.34 -2 1.68 -2 1 C-1.34 0.67 -0.68 0.34 0 0 Z " fill="#F8F9EF" transform="translate(48,67)"/>
<path d="M0 0 C0.66 0.33 1.32 0.66 2 1 C2 1.99 2 2.98 2 4 C1.01 4 0.02 4 -1 4 C-1 4.66 -1 5.32 -1 6 C-0.34 6.33 0.32 6.66 1 7 C0.01 7 -0.98 7 -2 7 C-2 6.01 -2 5.02 -2 4 C-2.99 3.67 -3.98 3.34 -5 3 C-2.625 1.4375 -2.625 1.4375 0 0 Z " fill="#E8E7F3" transform="translate(64,56)"/>
<path d="M0 0 C0 0.99 0 1.98 0 3 C-2.5 5.1875 -2.5 5.1875 -5 7 C-5 6.34 -5 5.68 -5 5 C-5.66 4.67 -6.32 4.34 -7 4 C-4.69 2.68 -2.38 1.36 0 0 Z " fill="#E1E4EF" transform="translate(73,51)"/>
<path d="M0 0 C2.91517292 1.07401108 4.77810176 1.77810176 7 4 C4.36 4 1.72 4 -1 4 C-0.67 2.68 -0.34 1.36 0 0 Z " fill="#5554E4" transform="translate(82,179)"/>
<path d="M0 0 C1.65 0 3.3 0 5 0 C5 0.66 5 1.32 5 2 C2.625 3.6875 2.625 3.6875 0 5 C-0.66 4.67 -1.32 4.34 -2 4 C-1.34 2.68 -0.68 1.36 0 0 Z " fill="#4E4FE4" transform="translate(54,58)"/>
<path d="M0 0 C0.66 0.33 1.32 0.66 2 1 C2 1.99 2 2.98 2 4 C-0.31 4 -2.62 4 -5 4 C-3.36587557 2.29159719 -2.13093906 1.06546953 0 0 Z " fill="#ECEDFA" transform="translate(101,35)"/>
<path d="M0 0 C2.625 0.9375 2.625 0.9375 5 2 C5 2.99 5 3.98 5 5 C2.08482708 3.92598892 0.22189824 3.22189824 -2 1 C-1.34 0.67 -0.68 0.34 0 0 Z " fill="#E3E9F5" transform="translate(75,172)"/>
<path d="M0 0 C1.32 0.66 2.64 1.32 4 2 C2.68 3.32 1.36 4.64 0 6 C-0.99 5.67 -1.98 5.34 -3 5 C-1.68 4.34 -0.36 3.68 1 3 C0.67 2.01 0.34 1.02 0 0 Z " fill="#E7EBF1" transform="translate(180,152)"/>
<path d="M0 0 C2.31 0.33 4.62 0.66 7 1 C5.35 2.32 3.7 3.64 2 5 C1.34 4.34 0.68 3.68 0 3 C0 2.01 0 1.02 0 0 Z " fill="#5353E2" transform="translate(149,138)"/>
<path d="M0 0 C0.66 0.66 1.32 1.32 2 2 C-1.96 3.98 -1.96 3.98 -6 6 C-6 5.01 -6 4.02 -6 3 C-4.02 2.01 -2.04 1.02 0 0 Z " fill="#ECF1F2" transform="translate(157,112)"/>
<path d="M0 0 C1.98 0 3.96 0 6 0 C5.67 1.65 5.34 3.3 5 5 C3.02 4.01 1.04 3.02 -1 2 C-0.67 1.34 -0.34 0.68 0 0 Z " fill="#E5E7F2" transform="translate(53,104)"/>
<path d="M0 0 C0 0.99 0 1.98 0 3 C-1.65 3.66 -3.3 4.32 -5 5 C-5.66 4.34 -6.32 3.68 -7 3 C-2.25 0 -2.25 0 0 0 Z " fill="#5D58E9" transform="translate(95,71)"/>
<path d="M0 0 C0.66 0.33 1.32 0.66 2 1 C2 1.66 2 2.32 2 3 C0.02 3.99 0.02 3.99 -2 5 C-2.99 4.34 -3.98 3.68 -5 3 C-2.625 1.4375 -2.625 1.4375 0 0 Z " fill="#EBECF4" transform="translate(89,42)"/>
</svg>
