<?xml version="1.0" encoding="UTF-8"?>
<svg version="1.1" xmlns="http://www.w3.org/2000/svg" width="200" height="200">
<path d="M0 0 C66 0 132 0 200 0 C200 66 200 132 200 200 C134 200 68 200 0 200 C0 134 0 68 0 0 Z " fill="#FEFEFE" transform="translate(0,0)"/>
<path d="M0 0 C3.27744111 1.6816466 6.38100589 3.60558273 9.5 5.5625 C11.29620207 6.66515944 13.09307967 7.7667192 14.890625 8.8671875 C15.76525391 9.40569336 16.63988281 9.94419922 17.54101562 10.49902344 C24.32692886 14.64117937 31.28297052 18.49887388 38.23828125 22.34765625 C38.95790039 22.74766846 39.67751953 23.14768066 40.41894531 23.55981445 C41.80525441 24.32954758 43.19379048 25.09528937 44.58496094 25.85620117 C46.41186685 26.87076152 48.20552353 27.92945531 50 29 C50.96035156 29.53367187 51.92070312 30.06734375 52.91015625 30.6171875 C56.26100194 34.43777791 55.91495515 38.44958119 55.875 43.375 C55.87056885 44.33075928 55.8661377 45.28651855 55.86157227 46.27124023 C55.57846498 53.16217929 55.57846498 53.16217929 53.22265625 56.57421875 C50.84795949 58.12081613 48.66053167 59.03217773 46 60 C43.64565616 61.30706676 41.31934203 62.63443563 39 64 C35.71875 65.875 35.71875 65.875 32.4375 67.75 C31.8388916 68.09216553 31.2402832 68.43433105 30.62353516 68.78686523 C27.55073992 70.54314948 24.47732912 72.29833405 21.40234375 74.05078125 C20.81783447 74.38432617 20.2333252 74.71787109 19.63110352 75.06152344 C17.88816777 76.05499439 16.14330884 77.04508881 14.3984375 78.03515625 C12.13465283 79.34398808 9.88937196 80.68536414 7.6640625 82.05859375 C6.61992188 82.69925781 5.57578125 83.33992188 4.5 84 C3.5821875 84.5775 2.664375 85.155 1.71875 85.75 C-1.51489645 87.236734 -3.46332019 87.26749841 -7 87 C-9.5703125 85.93359375 -9.5703125 85.93359375 -12.125 84.4375 C-13.07165527 83.89198486 -14.01831055 83.34646973 -14.99365234 82.78442383 C-15.98574707 82.19556396 -16.9778418 81.6067041 -18 81 C-19.02947754 80.40276123 -20.05895508 79.80552246 -21.11962891 79.19018555 C-23.16635735 78.00213093 -25.21022441 76.80913102 -27.25097656 75.61083984 C-30.60723047 73.64418236 -33.98860463 71.72672116 -37.375 69.8125 C-42.70516151 66.75923735 -48.01303394 63.66864638 -53.3125 60.5625 C-54.06128418 60.12462158 -54.81006836 59.68674316 -55.58154297 59.2355957 C-60.88145366 56.11854634 -60.88145366 56.11854634 -62 55 C-63.3077566 47.64615007 -65.10302221 36.60204966 -60.71533203 30.09472656 C-57.11429296 26.83385079 -52.7788741 24.93598219 -48.34814453 23.04052734 C-44.43262913 21.30545491 -40.77732867 19.12264328 -37.0625 17 C-35.56117735 16.17344925 -34.05856538 15.34923617 -32.5546875 14.52734375 C-26.48852538 11.18532565 -20.53223792 7.65893597 -14.57421875 4.12890625 C-13.95337402 3.76555176 -13.3325293 3.40219727 -12.69287109 3.02783203 C-11.21937361 2.13319338 -9.80067595 1.14950483 -8.39453125 0.15234375 C-5.01177597 -1.47557274 -3.58924271 -1.13232062 0 0 Z " fill="#4E4DFA" transform="translate(104,34)"/>
<path d="M0 0 C5.24562216 0.49228146 8.98259171 2.46147023 13.375 5.1875 C14.87447677 6.09331462 16.37451095 6.99820695 17.875 7.90234375 C18.68839844 8.39589355 19.50179687 8.88944336 20.33984375 9.39794922 C25.32221382 12.39852855 30.35091946 15.32000114 35.375 18.25 C36.36032715 18.8277417 37.3456543 19.4054834 38.36083984 20.00073242 C40.2814048 21.12328895 42.206305 22.23846555 44.13574219 23.34570312 C46.10340076 24.48215509 48.0566394 25.64383046 49.99707031 26.82617188 C50.95967773 27.39400391 51.92228516 27.96183594 52.9140625 28.546875 C53.77209473 29.06604492 54.63012695 29.58521484 55.51416016 30.12011719 C58.00614716 31.27243069 58.00614716 31.27243069 60.62402344 30.25073242 C61.4080957 29.83799072 62.19216797 29.42524902 63 29 C64.02351563 28.48566406 65.04703125 27.97132813 66.1015625 27.44140625 C78.21777563 20.98032142 90.11117017 14.1433574 101.8828125 7.07421875 C102.65963379 6.60999512 103.43645508 6.14577148 104.23681641 5.66748047 C105.71399894 4.78308316 107.18781206 3.89302648 108.65771484 2.99658203 C113.66588563 0 113.66588563 0 117 0 C117.32142926 3.852206 117.51532993 7.70097121 117.6875 11.5625 C117.77966797 12.64853516 117.87183594 13.73457031 117.96679688 14.85351562 C118.07869165 18.20018677 117.98430364 20.79388661 117 24 C113.79624121 27.25144052 110.07534405 29.01896031 106 31 C103.98966506 32.13418994 101.98444508 33.27749262 99.984375 34.4296875 C97.9076999 35.58074473 95.82954043 36.7291275 93.75 37.875 C78.26857801 46.26909665 78.26857801 46.26909665 63.484375 55.80078125 C60.10634479 57.43137131 58.57614151 57.08300948 55 56 C52.37252276 54.72739678 49.91561655 53.22757742 47.4375 51.6875 C45.92929662 50.77453467 44.4201368 49.86314799 42.91015625 48.953125 C42.11496582 48.47166016 41.31977539 47.99019531 40.50048828 47.49414062 C36.16602917 44.90412991 31.76752271 42.42728748 27.375 39.9375 C20.98975415 36.30170019 14.6227024 32.63981265 8.3125 28.875 C7.69487793 28.50882568 7.07725586 28.14265137 6.44091797 27.76538086 C4.03797973 26.32134384 1.99116805 24.99116805 0 23 C-0.22705078 20.66162109 -0.22705078 20.66162109 -0.1953125 17.7734375 C-0.18886719 16.7421875 -0.18242188 15.7109375 -0.17578125 14.6484375 C-0.15902344 13.56820312 -0.14226563 12.48796875 -0.125 11.375 C-0.11597656 10.28703125 -0.10695312 9.1990625 -0.09765625 8.078125 C-0.07403409 5.38519848 -0.04109556 2.69270745 0 0 Z " fill="#4F4EFA" transform="translate(41,110)"/>
<path d="M0 0 C0.84216064 0.43481689 1.68432129 0.86963379 2.55200195 1.31762695 C3.44016602 1.76017822 4.32833008 2.20272949 5.2434082 2.65869141 C8.35137476 4.3064951 11.45357725 5.96444637 14.55200195 7.63012695 C15.63223633 8.19924805 16.7124707 8.76836914 17.82543945 9.35473633 C23.10119745 12.19127041 27.67475482 14.70474141 31.55200195 19.31762695 C25.3824721 23.6877106 18.93182224 27.43331944 12.3137207 31.06933594 C11.65629883 31.4322876 10.99887695 31.79523926 10.3215332 32.16918945 C9.6816748 32.52142578 9.04181641 32.87366211 8.38256836 33.23657227 C6.27166213 34.44179964 6.27166213 34.44179964 3.3762207 36.65356445 C0.55200195 38.31762695 0.55200195 38.31762695 -1.8347168 38.33325195 C-5.5134884 36.90353504 -8.85318053 35.04982008 -12.26049805 33.06762695 C-12.97246338 32.66012207 -13.68442871 32.25261719 -14.41796875 31.83276367 C-19.16578876 29.10185632 -23.83754852 26.27527382 -28.44799805 23.31762695 C-29.43799805 22.78137695 -30.42799805 22.24512695 -31.44799805 21.69262695 C-32.10799805 21.23887695 -32.76799805 20.78512695 -33.44799805 20.31762695 C-33.44799805 19.32762695 -33.44799805 18.33762695 -33.44799805 17.31762695 C-31.640625 15.94067383 -31.640625 15.94067383 -29.1237793 14.53637695 C-28.20935059 14.0155957 -27.29492188 13.49481445 -26.3527832 12.95825195 C-25.3942041 12.4168457 -24.435625 11.87543945 -23.44799805 11.31762695 C-21.64693881 10.22862947 -19.84872378 9.13491337 -18.0534668 8.03637695 C-16.24815765 6.96231577 -14.44216589 5.88940111 -12.63549805 4.81762695 C-11.7209082 4.2555957 -10.80631836 3.69356445 -9.86401367 3.11450195 C-8.9777832 2.5937207 -8.09155273 2.07293945 -7.1784668 1.53637695 C-6.38851318 1.06135742 -5.59855957 0.58633789 -4.78466797 0.09692383 C-2.44799805 -0.68237305 -2.44799805 -0.68237305 0 0 Z " fill="#F9FAFB" transform="translate(101.447998046875,58.682373046875)"/>
<path d="M0 0 C-0.33 0.99 -0.66 1.98 -1 3 C-1.66 3 -2.32 3 -3 3 C-2.67 3.99 -2.34 4.98 -2 6 C-4.97 5.505 -4.97 5.505 -8 5 C-8 5.66 -8 6.32 -8 7 C-7.34 7.33 -6.68 7.66 -6 8 C-6.99 8 -7.98 8 -9 8 C-9 8.99 -9 9.98 -9 11 C-9.66 11 -10.32 11 -11 11 C-11.33 11.99 -11.66 12.98 -12 14 C-12.99 13.67 -13.98 13.34 -15 13 C-15 13.99 -15 14.98 -15 16 C-18.71599191 16.20086443 -19.77208445 16.1519437 -23 14 C-18.58056177 9.79101121 -13.96225225 6.63914414 -8.6875 3.625 C-7.75333252 3.08842773 -7.75333252 3.08842773 -6.80029297 2.54101562 C-2.26435718 0 -2.26435718 0 0 0 Z " fill="#4C4CF8" transform="translate(88,40)"/>
<path d="M0 0 C1.32 0 2.64 0 4 0 C4 0.66 4 1.32 4 2 C8.455 1.505 8.455 1.505 13 1 C13 1.66 13 2.32 13 3 C13.99 3.33 14.98 3.66 16 4 C16 3.34 16 2.68 16 2 C19.22791555 -0.1519437 20.28400809 -0.20086443 24 0 C21.2757237 3.20503094 17.87745847 5.42738272 14 7 C8.56370739 7.1156658 4.23867001 4.18438153 0 1 C0 0.67 0 0.34 0 0 Z " fill="#635FE7" transform="translate(88,160)"/>
<path d="M0 0 C3.12290635 0.48578543 5.99580359 0.9986012 9 2 C9 2.66 9 3.32 9 4 C10.32 4.66 11.64 5.32 13 6 C11.68 8.31 10.36 10.62 9 13 C8.01 13 7.02 13 6 13 C6 13.99 6 14.98 6 16 C3.69 16 1.38 16 -1 16 C2.27708863 12.32966073 5.71522208 10.30718811 10 8 C7.0094833 4.66442368 4.06815373 2.84916079 0 1 C0 0.67 0 0.34 0 0 Z " fill="#5B59E0" transform="translate(122,70)"/>
<path d="M0 0 C3.375 -0.1875 3.375 -0.1875 7 0 C7.66 0.99 8.32 1.98 9 3 C7.60823368 3.96423026 6.2113777 4.92111602 4.8125 5.875 C4.03519531 6.40867187 3.25789063 6.94234375 2.45703125 7.4921875 C0.0323391 8.98015439 -2.3333499 10.02428078 -5 11 C-5 10.34 -5 9.68 -5 9 C-4.34 9 -3.68 9 -3 9 C-2.67 7.35 -2.34 5.7 -2 4 C-0.02 4 1.96 4 4 4 C3.04134491 1.66924071 3.04134491 1.66924071 0 0 Z " fill="#EEF1F9" transform="translate(124,75)"/>
<path d="M0 0 C-3.00282877 2.00188584 -6.06683753 3.81300244 -9.1875 5.625 C-10.27417969 6.25664063 -11.36085937 6.88828125 -12.48046875 7.5390625 C-13.31191406 8.02117187 -14.14335937 8.50328125 -15 9 C-15.66 8.34 -16.32 7.68 -17 7 C-17 5.68 -17 4.36 -17 3 C-16.071875 2.855625 -15.14375 2.71125 -14.1875 2.5625 C-10.99274889 2.07899889 -10.99274889 2.07899889 -8 1 C-5.07175348 0.02391783 -3.04386724 -0.08226668 0 0 Z " fill="#5D5AE9" transform="translate(146,96)"/>
<path d="M0 0 C4.75 0.75 4.75 0.75 7 3 C10.5255254 4.28568472 14.03444563 4.09965554 17.75 4.0625 C18.92046875 4.05347656 20.0909375 4.04445313 21.296875 4.03515625 C22.18890625 4.02355469 23.0809375 4.01195313 24 4 C19.74048445 7.26562859 17.49091848 8.46522102 12 8 C8.7890625 6.50390625 8.7890625 6.50390625 5.625 4.5625 C4.56539063 3.92441406 3.50578125 3.28632812 2.4140625 2.62890625 C1.61742188 2.09136719 0.82078125 1.55382812 0 1 C0 0.67 0 0.34 0 0 Z " fill="#5F59E2" transform="translate(85,113)"/>
<path d="M0 0 C0.66 0.33 1.32 0.66 2 1 C2 1.66 2 2.32 2 3 C1.236875 3.2475 0.47375 3.495 -0.3125 3.75 C-3.08552108 4.75106662 -3.08552108 4.75106662 -4.28125 6.96875 C-6.63038547 9.74500101 -8.67390277 9.99438769 -12.1875 10.75 C-13.27417969 10.99234375 -14.36085937 11.2346875 -15.48046875 11.484375 C-16.31191406 11.65453125 -17.14335937 11.8246875 -18 12 C-14.87189356 8.68767688 -11.32001438 6.578774 -7.4375 4.25 C-6.75236328 3.82589844 -6.06722656 3.40179688 -5.36132812 2.96484375 C-3.61215357 1.91087596 -1.80905993 0.947503 0 0 Z " fill="#5B57E3" transform="translate(146,115)"/>
<path d="M0 0 C0 3 0 3 -2 8 C-7.94 8.495 -7.94 8.495 -14 9 C-10.6381707 5.6381707 -8.84010956 4.18742032 -4.75 2.25 C-3.85796875 1.82203125 -2.9659375 1.3940625 -2.046875 0.953125 C-1.37140625 0.63859375 -0.6959375 0.3240625 0 0 Z " fill="#EDEFF8" transform="translate(137,101)"/>
<path d="M0 0 C0.66 0.33 1.32 0.66 2 1 C0.68 2.32 -0.64 3.64 -2 5 C-1.34 5.33 -0.68 5.66 0 6 C0 6.66 0 7.32 0 8 C-1.258125 8.04125 -2.51625 8.0825 -3.8125 8.125 C-4.52019531 8.14820313 -5.22789063 8.17140625 -5.95703125 8.1953125 C-8 8 -8 8 -11 6 C-9.21385682 4.96953278 -7.42089982 3.95086764 -5.625 2.9375 C-4.62726563 2.36902344 -3.62953125 1.80054688 -2.6015625 1.21484375 C-1.74304688 0.81394531 -0.88453125 0.41304688 0 0 Z " fill="#5855ED" transform="translate(126,127)"/>
<path d="M0 0 C0 7.92 0 15.84 0 24 C-0.99 24.33 -1.98 24.66 -3 25 C-3 24.34 -3 23.68 -3 23 C-2.34 23 -1.68 23 -1 23 C-1 16.07 -1 9.14 -1 2 C-2.32 2.99 -3.64 3.98 -5 5 C-7.75 5.1875 -7.75 5.1875 -10 5 C-3.87096774 0 -3.87096774 0 0 0 Z " fill="#5551DE" transform="translate(158,110)"/>
<path d="M0 0 C0.66 0.33 1.32 0.66 2 1 C1.67 1.66 1.34 2.32 1 3 C1.33 3.99 1.66 4.98 2 6 C1.01 6.66 0.02 7.32 -1 8 C-1 6.68 -1 5.36 -1 4 C-1.66 4 -2.32 4 -3 4 C-2.86149295 7.45866792 -2.71295273 10.91683275 -2.5625 14.375 C-2.52318359 15.35984375 -2.48386719 16.3446875 -2.44335938 17.359375 C-2.40146484 18.30039063 -2.35957031 19.24140625 -2.31640625 20.2109375 C-2.27974854 21.08024902 -2.24309082 21.94956055 -2.20532227 22.84521484 C-2.12598456 25.0483262 -2.12598456 25.0483262 -1 27 C-1.99 26.67 -2.98 26.34 -4 26 C-4.11597653 22.22942453 -4.18717396 18.45930607 -4.25 14.6875 C-4.28351562 13.61564453 -4.31703125 12.54378906 -4.3515625 11.43945312 C-4.36445312 10.41142578 -4.37734375 9.38339844 -4.390625 8.32421875 C-4.41157227 7.37635498 -4.43251953 6.42849121 -4.45410156 5.4519043 C-4 3 -4 3 -1.97558594 1.16723633 C-0.9976709 0.58945435 -0.9976709 0.58945435 0 0 Z " fill="#5652E1" transform="translate(46,63)"/>
<path d="M0 0 C1.94113934 0.92994117 3.8777951 1.8692453 5.8125 2.8125 C6.89144531 3.33457031 7.97039062 3.85664062 9.08203125 4.39453125 C11.56579702 5.76110117 13.1799378 6.87340101 15 9 C13.02 9 11.04 9 9 9 C8.34 7.68 7.68 6.36 7 5 C5.35 5.33 3.7 5.66 2 6 C1.34 4.02 0.68 2.04 0 0 Z " fill="#5657E6" transform="translate(116,42)"/>
<path d="M0 0 C1.94113934 0.92994117 3.8777951 1.8692453 5.8125 2.8125 C6.89144531 3.33457031 7.97039062 3.85664063 9.08203125 4.39453125 C11.56579702 5.76110117 13.1799378 6.87340101 15 9 C12.69 9 10.38 9 8 9 C8 8.34 8 7.68 8 7 C7.01 7.33 6.02 7.66 5 8 C5 7.01 5 6.02 5 5 C4.01 5.495 4.01 5.495 3 6 C2.67 5.01 2.34 4.02 2 3 C1.34 2.67 0.68 2.34 0 2 C0 1.34 0 0.68 0 0 Z " fill="#5B57E3" transform="translate(73,127)"/>
<path d="M0 0 C1.11375 0.556875 1.11375 0.556875 2.25 1.125 C2.25 2.775 2.25 4.425 2.25 6.125 C-1.52545388 5.03431332 -4.22043472 4.2166909 -6.75 1.125 C-4.02098495 -0.69434337 -3.21400584 -1.02263822 0 0 Z " fill="#5C59EC" transform="translate(85.75,153.875)"/>
<path d="M0 0 C2.27467581 1.09677235 4.54454524 2.20198422 6.8125 3.3125 C7.45509766 3.62123047 8.09769531 3.92996094 8.75976562 4.24804688 C11.95607616 5.82136035 14.70577107 7.22816208 17 10 C15.35 10.33 13.7 10.66 12 11 C11.67 9.68 11.34 8.36 11 7 C9.35 6.67 7.7 6.34 6 6 C6 5.34 6 4.68 6 4 C4.02 3.34 2.04 2.68 0 2 C0 1.34 0 0.68 0 0 Z " fill="#605CDE" transform="translate(47,112)"/>
<path d="M0 0 C0.33 0.66 0.66 1.32 1 2 C0.34 2 -0.32 2 -1 2 C-1.185625 2.598125 -1.37125 3.19625 -1.5625 3.8125 C-3.73893931 7.12447286 -6.30557885 7.76852628 -10 9 C-13.4375 9.1875 -13.4375 9.1875 -16 9 C-15.67 8.34 -15.34 7.68 -15 7 C-14.26394531 6.85691406 -13.52789062 6.71382813 -12.76953125 6.56640625 C-9.55888921 5.90978693 -7.45581096 4.6723082 -4.6875 2.9375 C-3.80449219 2.38964844 -2.92148438 1.84179688 -2.01171875 1.27734375 C-1.34785156 0.85582031 -0.68398437 0.43429688 0 0 Z " fill="#5E5DDA" transform="translate(113,89)"/>
<path d="M0 0 C0.94875 0.04125 1.8975 0.0825 2.875 0.125 C2.875 1.445 2.875 2.765 2.875 4.125 C1.125 4.8125 1.125 4.8125 -1.125 5.125 C-3.375 3.6875 -3.375 3.6875 -5.125 2.125 C-3.125 0.125 -3.125 0.125 0 0 Z " fill="#F0F1F9" transform="translate(100.125,136.875)"/>
<path d="M0 0 C0.78375 0.04125 1.5675 0.0825 2.375 0.125 C-0.41696011 3.40965896 -3.85696817 5.13821958 -7.625 7.125 C-8.285 7.125 -8.945 7.125 -9.625 7.125 C-9.625 6.135 -9.625 5.145 -9.625 4.125 C-8.449375 3.691875 -8.449375 3.691875 -7.25 3.25 C-4.1878238 1.93763877 -3.35708095 0.159861 0 0 Z " fill="#5D59E4" transform="translate(133.625,145.875)"/>
<path d="M0 0 C0.66 0.33 1.32 0.66 2 1 C-3.94 4.465 -3.94 4.465 -10 8 C-10.33 7.01 -10.66 6.02 -11 5 C-3.52173913 1.17391304 -3.52173913 1.17391304 0 0 Z " fill="#6665E0" transform="translate(150,137)"/>
<path d="M0 0 C3.63 1.98 7.26 3.96 11 6 C7.59068103 7.13643966 6.99664544 6.86747764 3.8125 5.5625 C3.09707031 5.27503906 2.38164063 4.98757812 1.64453125 4.69140625 C0.83048828 4.34916016 0.83048828 4.34916016 0 4 C0 2.68 0 1.36 0 0 Z " fill="#E7EBF7" transform="translate(82,112)"/>
<path d="M0 0 C0.66 0.33 1.32 0.66 2 1 C1.34 2.32 0.68 3.64 0 5 C-1.32 4.67 -2.64 4.34 -4 4 C-3.67 5.32 -3.34 6.64 -3 8 C-4.32 7.67 -5.64 7.34 -7 7 C-7 6.34 -7 5.68 -7 5 C-6.34 5 -5.68 5 -5 5 C-4.67 4.01 -4.34 3.02 -4 2 C-2.0625 0.75 -2.0625 0.75 0 0 Z " fill="#5553EB" transform="translate(119,86)"/>
<path d="M0 0 C0.99 0.66 1.98 1.32 3 2 C-0.63 3.98 -4.26 5.96 -8 8 C-7.67 7.01 -7.34 6.02 -7 5 C-6.34 5 -5.68 5 -5 5 C-5.33 4.01 -5.66 3.02 -6 2 C-4.02 2 -2.04 2 0 2 C0 1.34 0 0.68 0 0 Z " fill="#EAECF9" transform="translate(95,32)"/>
<path d="M0 0 C0.66 0 1.32 0 2 0 C2 0.66 2 1.32 2 2 C1.01 1.67 0.02 1.34 -1 1 C-0.67 0.67 -0.34 0.34 0 0 Z M-1 2 C-1.66 3.65 -2.32 5.3 -3 7 C-5.31 7 -7.62 7 -10 7 C-3.87096774 2 -3.87096774 2 -1 2 Z " fill="#EBEFF9" transform="translate(112,160)"/>
<path d="M0 0 C2.3431213 0.25561323 4.67843403 0.59270772 7 1 C7.33 1.66 7.66 2.32 8 3 C8.99 3.33 9.98 3.66 11 4 C10.67 4.99 10.34 5.98 10 7 C8.70359622 6.40606618 7.41301161 5.79942011 6.125 5.1875 C5.40570313 4.85105469 4.68640625 4.51460938 3.9453125 4.16796875 C2 3 2 3 0 0 Z " fill="#5D5DE0" transform="translate(72,105)"/>
<path d="M0 0 C2.31 0 4.62 0 7 0 C3.80009492 2.74277578 0.99500618 4.6302836 -3 6 C-2.67 4.68 -2.34 3.36 -2 2 C-1.34 2 -0.68 2 0 2 C0 1.34 0 0.68 0 0 Z " fill="#5A54E8" transform="translate(150,89)"/>
<path d="M0 0 C0.66 0.33 1.32 0.66 2 1 C0.8125 3 0.8125 3 -1 5 C-3.6875 5.25 -3.6875 5.25 -6 5 C-6 5.66 -6 6.32 -6 7 C-7.32 6.67 -8.64 6.34 -10 6 C-8.3811004 4.96951963 -6.75467511 3.95085322 -5.125 2.9375 C-4.22007813 2.36902344 -3.31515625 1.80054688 -2.3828125 1.21484375 C-1.20332031 0.61349609 -1.20332031 0.61349609 0 0 Z " fill="#6562E0" transform="translate(58,56)"/>
<path d="M0 0 C3.96 1.98 7.92 3.96 12 6 C9.45297384 7.27351308 8.5717055 6.80191925 5.875 6.0625 C5.15054688 5.86785156 4.42609375 5.67320313 3.6796875 5.47265625 C3.12539062 5.31667969 2.57109375 5.16070312 2 5 C2 4.01 2 3.02 2 2 C1.34 2 0.68 2 0 2 C0 1.34 0 0.68 0 0 Z " fill="#5C59DD" transform="translate(78,85)"/>
<path d="M0 0 C0.66 0.33 1.32 0.66 2 1 C1.0625 2.875 1.0625 2.875 -1 5 C-3.95485056 5.95351561 -6.9369519 6.51196718 -10 7 C-6.81404865 4.36021174 -3.69029454 1.89501612 0 0 Z " fill="#E4E8F8" transform="translate(88,64)"/>
<path d="M0 0 C0.78375 0.04125 1.5675 0.0825 2.375 0.125 C2.705 2.105 3.035 4.085 3.375 6.125 C0.735 4.805 -1.905 3.485 -4.625 2.125 C-2.625 0.125 -2.625 0.125 0 0 Z " fill="#EBEDF8" transform="translate(154.625,59.875)"/>
<path d="M0 0 C2.31 0.66 4.62 1.32 7 2 C7 2.66 7 3.32 7 4 C8.32 4.33 9.64 4.66 11 5 C10.34 5.66 9.68 6.32 9 7 C6.03 5.35 3.06 3.7 0 2 C0 1.34 0 0.68 0 0 Z " fill="#625EE5" transform="translate(101,57)"/>
<path d="M0 0 C2.475 0.99 2.475 0.99 5 2 C3.8125 3.5625 3.8125 3.5625 2 5 C-0.6875 4.6875 -0.6875 4.6875 -3 4 C-2.34 3.67 -1.68 3.34 -1 3 C-0.67 2.01 -0.34 1.02 0 0 Z M-2 5 C-1.34 5.66 -0.68 6.32 0 7 C-0.66 7 -1.32 7 -2 7 C-2 6.34 -2 5.68 -2 5 Z " fill="#EEF0F6" transform="translate(68,104)"/>
<path d="M0 0 C3.63 1.98 7.26 3.96 11 6 C7 7 7 7 4 6 C4 5.34 4 4.68 4 4 C2.68 3.34 1.36 2.68 0 2 C0 1.34 0 0.68 0 0 Z " fill="#EAECFC" transform="translate(56,97)"/>
<path d="M0 0 C4.43090471 1.20842856 6.98112756 2.51668565 10 6 C8.35 6 6.7 6 5 6 C4.67 5.34 4.34 4.68 4 4 C1.47266765 3.34444881 1.47266765 3.34444881 -1 3 C-0.67 2.01 -0.34 1.02 0 0 Z " fill="#5F5AE0" transform="translate(148,61)"/>
<path d="M0 0 C0.33 0.99 0.66 1.98 1 3 C1.99 3.33 2.98 3.66 4 4 C2.02 4.99 2.02 4.99 0 6 C-1.65 4.68 -3.3 3.36 -5 2 C-3.35 1.34 -1.7 0.68 0 0 Z " fill="#5656EC" transform="translate(120,64)"/>
<path d="M0 0 C-0.33 0.99 -0.66 1.98 -1 3 C-1.66 3 -2.32 3 -3 3 C-2.67 3.99 -2.34 4.98 -2 6 C-4.31 5.67 -6.62 5.34 -9 5 C-2.87096774 0 -2.87096774 0 0 0 Z " fill="#605BE6" transform="translate(88,40)"/>
<path d="M0 0 C0.99 0 1.98 0 3 0 C4.6875 2 4.6875 2 6 4 C5.01 4.66 4.02 5.32 3 6 C1.68 5.01 0.36 4.02 -1 3 C-0.67 2.01 -0.34 1.02 0 0 Z " fill="#ECEDF6" transform="translate(121,41)"/>
<path d="M0 0 C0.66 0 1.32 0 2 0 C2 1.98 2 3.96 2 6 C1.01 6.33 0.02 6.66 -1 7 C-3.1875 5.5625 -3.1875 5.5625 -5 4 C-3.35 3.34 -1.7 2.68 0 2 C0 1.34 0 0.68 0 0 Z " fill="#EEEFFA" transform="translate(84,81)"/>
<path d="M0 0 C1.65 0 3.3 0 5 0 C3.68 1.65 2.36 3.3 1 5 C1.33 5.66 1.66 6.32 2 7 C0.68 6.67 -0.64 6.34 -2 6 C-2 4.68 -2 3.36 -2 2 C-1.34 2 -0.68 2 0 2 C0 1.34 0 0.68 0 0 Z " fill="#5B57E2" transform="translate(67,73)"/>
<path d="M0 0 C0.66 0.33 1.32 0.66 2 1 C-2.30769231 5.92307692 -2.30769231 5.92307692 -5.8125 6.3125 C-6.8953125 6.1578125 -6.8953125 6.1578125 -8 6 C-5.38485683 3.87961365 -2.80362384 1.86908256 0 0 Z " fill="#605AE5" transform="translate(77,45)"/>
<path d="M0 0 C1.98 0.99 3.96 1.98 6 3 C6 3.66 6 4.32 6 5 C4.02 5 2.04 5 0 5 C0 3.33333333 0 1.66666667 0 0 Z " fill="#F2F1F9" transform="translate(78,155)"/>
<path d="M0 0 C5.625 -0.25 5.625 -0.25 9 2 C9 2.99 9 3.98 9 5 C5.54074837 3.7508258 2.85306797 2.32472205 0 0 Z " fill="#6763E5" transform="translate(51,139)"/>
<path d="M0 0 C2.57343171 1.07918104 4.66603411 2.44402274 7 4 C7 4.66 7 5.32 7 6 C3.54074837 4.7508258 0.85306797 3.32472205 -2 1 C-1.34 0.67 -0.68 0.34 0 0 Z " fill="#EAEAFC" transform="translate(57,115)"/>
<path d="M0 0 C0 0.66 0 1.32 0 2 C-0.99 2.33 -1.98 2.66 -3 3 C-3.66 3.66 -4.32 4.32 -5 5 C-7.625 5.125 -7.625 5.125 -10 5 C-3.87096774 0 -3.87096774 0 0 0 Z " fill="#6059DD" transform="translate(158,110)"/>
<path d="M0 0 C1.32 0.66 2.64 1.32 4 2 C2.35 3.32 0.7 4.64 -1 6 C-1.66 5.67 -2.32 5.34 -3 5 C-2.01 3.35 -1.02 1.7 0 0 Z " fill="#E8EDF7" transform="translate(113,130)"/>
<path d="M0 0 C0.33 1.32 0.66 2.64 1 4 C-1.64 4.33 -4.28 4.66 -7 5 C-2.25 1.125 -2.25 1.125 0 0 Z " fill="#5B59E0" transform="translate(95,35)"/>
<path d="M0 0 C0.66 0.33 1.32 0.66 2 1 C1.34 2.32 0.68 3.64 0 5 C-1.98 5 -3.96 5 -6 5 C-4.06745228 2.9754262 -2.36841312 1.57894208 0 0 Z " fill="#E3E4F7" transform="translate(122,154)"/>
<path d="M0 0 C-0.33 0.99 -0.66 1.98 -1 3 C-2.65 3 -4.3 3 -6 3 C-6.33 2.34 -6.66 1.68 -7 1 C-4.53721199 -0.231394 -2.7204945 -0.07159196 0 0 Z " fill="#EEF0F6" transform="translate(136,149)"/>
</svg>
