<svg width="202" height="64" viewBox="0 0 202 64" fill="none" xmlns="http://www.w3.org/2000/svg"
    class=" " style="width: 240px;">
    <g clip-path="url(#clip0_7793_486)">
        <path
            d="M26.72 0.346664L0.666667 15.4133C0.266667 15.6533 0 16.08 0 16.56V25.8133C0 26.2933 0.266667 26.72 0.666667 26.96L26.7467 42C27.5733 42.48 28.5867 42.48 29.4133 42L55.4933 26.96C55.8933 26.72 56.16 26.2933 56.16 25.8133V16.56C56.16 16.08 55.8933 15.6533 55.4933 15.4133L29.3867 0.346664C28.56 -0.133336 27.5467 -0.133336 26.72 0.346664ZM27.4133 30.2933L12.6667 21.7867C12.2133 21.52 12.2133 20.88 12.6667 20.64L27.4133 12.1333C27.84 11.8933 28.3467 11.8933 28.7467 12.1333L43.4933 20.64C43.9467 20.9067 43.9467 21.5467 43.4933 21.7867L28.7467 30.2933C28.32 30.5333 27.8133 30.5333 27.4133 30.2933Z"
            fill="#4D4DFF"></path>
        <path
            d="M1.01333 36.6667L27.4133 51.92C27.8133 52.16 28.3467 52.16 28.7467 51.92L55.1467 36.6667C55.6 36.4 56.16 36.72 56.16 37.2533V47.4667C56.16 47.9467 55.8933 48.3733 55.4933 48.6133L29.4133 63.6533C28.5867 64.1333 27.5733 64.1333 26.7467 63.6533L0.666667 48.5867C0.266667 48.3467 0 47.92 0 47.44V37.2267C0 36.72 0.56 36.4 1.01333 36.64V36.6667Z"
            fill="#4D4DFF"></path>
        <path
            d="M81.6803 17.92C80.4803 20.2133 78.2937 21.4933 75.3337 21.4933C69.8403 21.4933 66.667 17.6533 66.667 12.16C66.667 6.26665 70.5603 2.37332 76.2403 2.37332C80.507 2.37332 83.467 4.63999 84.6937 7.94665L81.0937 8.87999C80.3737 7.11999 78.9603 5.65332 76.187 5.65332C72.8803 5.65332 70.6137 8.10665 70.6137 12.1067C70.6137 16.1067 72.8803 18.2133 76.0003 18.2133C78.4003 18.2133 80.4003 16.9067 81.0403 14.56H76.1337V11.68H85.0937V21.2H82.1337L81.707 17.92H81.6803Z"
            fill="#0C0C0E"></path>
        <path
            d="M87.4136 2.66666H96.9069C100.32 2.66666 102.4 4.37332 102.4 7.30666C102.4 9.57332 101.254 11.2 99.5202 11.5733V11.68C101.44 12.0267 102.907 13.68 102.907 16.2133C102.907 19.3067 100.56 21.2 96.6136 21.2H87.4136V2.66666ZM95.6802 10.32C97.3602 10.32 98.3469 9.78666 98.3469 8.15999C98.3469 6.63999 97.5469 5.94666 95.8402 5.94666H91.2536V10.32H95.7069H95.6802ZM95.8669 17.92C97.8936 17.92 98.8269 17.3333 98.8269 15.6533C98.8269 14.1333 97.9736 13.4133 95.9202 13.4133H91.2269V17.8933H95.8669V17.92Z"
            fill="#0C0C0E"></path>
        <path
            d="M119.173 17.92C117.973 20.2133 115.787 21.4933 112.827 21.4933C107.333 21.4933 104.16 17.6533 104.16 12.16C104.16 6.26665 108.053 2.37332 113.733 2.37332C118 2.37332 120.96 4.63999 122.187 7.94665L118.587 8.87999C117.867 7.11999 116.453 5.65332 113.68 5.65332C110.373 5.65332 108.107 8.10665 108.107 12.1067C108.107 16.1067 110.373 18.2133 113.493 18.2133C115.893 18.2133 117.893 16.9067 118.533 14.56H113.627V11.68H122.587V21.2H119.627L119.2 17.92H119.173Z"
            fill="#0C0C0E"></path>
        <path d="M66.6401 27.7867H73.0401V49.84H85.2268V55.36H66.6401V27.7867Z" fill="#0C0C0E"></path>
        <path
            d="M86.0269 44.56C86.0269 37.7334 90.7202 33.2534 97.9469 33.2534C105.174 33.2534 109.867 37.7334 109.867 44.56C109.867 51.3867 105.174 55.8667 97.9469 55.8667C90.7202 55.8667 86.0269 51.3867 86.0269 44.56ZM97.9469 51.28C101.36 51.28 103.28 48.56 103.28 44.5867C103.28 40.6134 101.36 37.8934 97.9469 37.8934C94.5335 37.8934 92.6135 40.6134 92.6135 44.5867C92.6135 48.56 94.5335 51.28 97.9469 51.28Z"
            fill="#0C0C0E"></path>
        <path
            d="M111.44 44.56C111.44 37.2267 116.107 33.2534 121.893 33.2534C124.747 33.2534 127.36 34.5334 128.8 36.2134V33.7867H135.2V62.5067L128.8 64.0267V52.8267C127.467 54.6134 124.747 55.8934 121.893 55.8934C116.08 55.8934 111.44 51.92 111.44 44.5867V44.56ZM123.307 51.1734C126.56 51.1734 128.853 48.5334 128.853 45.12V44.0534C128.853 40.5867 126.56 37.9467 123.333 37.9467C120.107 37.9467 118 40.72 118 44.56C118 48.4 120.08 51.1734 123.307 51.1734Z"
            fill="#0C0C0E"></path>
        <path
            d="M138.107 49.8667C138.107 46.4 140.8 44.88 144.134 43.8934L153.494 41.1734C153.36 38.9067 151.52 37.84 149.387 37.84C147.254 37.84 144.64 38.7734 143.147 42.3734L138.16 40.4C140.427 34.9334 144.907 33.28 149.867 33.28C156.4 33.28 159.76 36.48 159.76 41.8134V48.48C159.76 50.1334 160.24 50.88 161.547 50.88C162.134 50.88 162.907 50.7467 163.467 50.5067V55.04C162.454 55.52 161.334 55.84 159.494 55.84C156.427 55.84 154.587 54.1867 154.16 52.16H154C152.374 54.5067 149.68 55.8667 145.707 55.8667C141.04 55.8667 138.107 53.2267 138.107 49.8934V49.8667ZM147.494 51.0934C150.347 51.0934 152.827 49.76 153.467 47.04V44.9867L146.934 47.1734C145.574 47.6534 144.587 48.08 144.587 49.1734C144.587 50.2667 145.6 51.0934 147.494 51.0934Z"
            fill="#0C0C0E"></path>
        <path
            d="M166.694 33.76L167.947 28.5067H172.347V33.76H178.027V38.4533H172.347V47.4933C172.347 50.1333 173.04 50.9867 175.28 50.9867C176.134 50.9867 177.067 50.8533 178.134 50.64V55.1733C176.48 55.5467 175.067 55.76 172.96 55.76C168.267 55.76 165.92 53.7067 165.92 49.52V38.4267H162.8V33.7333H166.694V33.76Z"
            fill="#0C0C0E"></path>
        <path
            d="M190.453 55.84C183.28 55.84 179.04 51.44 179.04 44.8267C179.04 38.2134 183.387 33.2534 190.773 33.2534C198.16 33.2534 202.133 38.2934 201.707 45.9734H185.44C185.92 49.3067 187.867 51.1467 191.04 51.1467C193.653 51.1467 195.573 50.16 196.347 47.7334L201.547 49.3067C199.76 53.9734 195.067 55.84 190.453 55.84ZM195.467 42.0534C195.04 39.12 193.173 37.7867 190.693 37.7867C188.08 37.7867 186.267 39.2267 185.653 42.0534H195.467Z"
            fill="#0C0C0E"></path>
    </g>
    <defs>
        <clipPath id="clip0_7793_486">
            <rect width="201.76" height="64" fill="white"></rect>
        </clipPath>
    </defs>
</svg>