<svg width="40" height="40" viewBox="0 0 40 40" fill="none" xmlns="http://www.w3.org/2000/svg">
<path d="M3.33334 16.6666H10V26.6666H3.33334V16.6666Z" fill="#30F2E2"/>
<path d="M30 16.6666H36.6667V26.6666H30V16.6666Z" fill="#30F2E2"/>
<path d="M3.33334 16.6666H10V26.6666H3.33334V16.6666Z" stroke="#141414" stroke-width="2.5"/>
<path d="M30 16.6666H36.6667V26.6666H30V16.6666Z" stroke="#141414" stroke-width="2.5"/>
<path d="M10 16.6667V13.3334C10 7.81052 14.4771 3.33337 20 3.33337C25.5228 3.33337 30 7.81052 30 13.3334V26.6667C30 30.3485 27.0152 33.3334 23.3333 33.3334" stroke="#141414" stroke-width="2.5"/>
<path d="M23.3333 35.8334V30.8334H16.6667V35.8334H23.3333Z" fill="white"/>
<path d="M23.3333 35.8334V30.8334H16.6667V35.8334H23.3333Z" stroke="#141414" stroke-width="2.5"/>
<path d="M25 20C25 22.7615 22.7615 25 20 25C17.2385 25 15 22.7615 15 20" stroke="#141414" stroke-width="2.5"/>
<path d="M16.6667 18.3334V13.3334" stroke="#141414" stroke-width="2.5"/>
<path d="M23.3333 18.3334V13.3334" stroke="#141414" stroke-width="2.5"/>
</svg>
