<svg width="40" height="40" viewBox="0 0 40 40" fill="none" xmlns="http://www.w3.org/2000/svg">
<circle cx="20" cy="20" r="17.75" stroke="#141414" stroke-width="2.5"/>
<path d="M14.2448 19.1132L14.25 19.0567V19C14.25 13.8326 14.8886 9.49852 16.0133 6.50455C17.1741 3.41455 18.6305 2.25 20 2.25C20.6739 2.25 21.4258 2.56906 22.2281 3.37499C23.0351 4.18569 23.8193 5.42212 24.5048 7.05004C25.8735 10.3008 26.75 14.8785 26.75 20C26.75 25.1215 25.8735 29.6992 24.5048 32.95C23.8193 34.5779 23.0351 35.8143 22.2281 36.625C21.4258 37.4309 20.6739 37.75 20 37.75C19.352 37.75 18.6089 37.4249 17.8184 36.5721C17.0254 35.7167 16.2679 34.4109 15.6424 32.6965C14.3938 29.2746 13.7584 24.4643 14.2448 19.1132Z" stroke="#141414" stroke-width="2.5"/>
<line x1="3" y1="12.75" x2="37" y2="12.75" stroke="#141414" stroke-width="2.5"/>
<line x1="3" y1="24.75" x2="38" y2="24.75" stroke="#141414" stroke-width="2.5"/>
<rect x="14.7017" y="17.7017" width="9.35205" height="9.35205" transform="rotate(45 14.7017 17.7017)" fill="#30F2E2" stroke="#141414" stroke-width="2.5"/>
</svg>
