<svg width="40" height="40" viewBox="0 0 40 40" fill="none" xmlns="http://www.w3.org/2000/svg">
<rect x="3" y="9" width="31" height="6" fill="#30F2E2"/>
<path d="M3 9V3H34V9M3 9H34M3 9V15M34 9V15M34 15V27H3V15M34 15H3M6.5 21H15.5" stroke="#141414" stroke-width="2.5"/>
<path d="M29.5 38C34.1944 38 38 34.1944 38 29.5C38 24.8056 34.1944 21 29.5 21C24.8056 21 21 24.8056 21 29.5C21 34.1944 24.8056 38 29.5 38Z" fill="#30F2E2" stroke="#141414" stroke-width="2.5"/>
<path d="M25 29.6L27.9474 32L33 26" stroke="#141414" stroke-width="2.5"/>
</svg>
