<svg width="40" height="40" viewBox="0 0 40 40" fill="none" xmlns="http://www.w3.org/2000/svg">
<path d="M20 36.6667C29.2047 36.6667 36.6667 29.2047 36.6667 20C36.6667 10.7953 29.2047 3.33337 20 3.33337C10.7953 3.33337 3.33334 10.7953 3.33334 20C3.33334 24.0222 4.75814 27.7117 7.13055 30.591L3.33334 36.6662L20 36.6667Z" fill="#30F2E2"/>
<path d="M20 36.6667C29.2047 36.6667 36.6667 29.2047 36.6667 20C36.6667 10.7953 29.2047 3.33337 20 3.33337C10.7953 3.33337 3.33334 10.7953 3.33334 20C3.33334 24.0222 4.75814 27.7117 7.13055 30.591L3.33334 36.6662L20 36.6667Z" stroke="#141414" stroke-width="2.5"/>
<path d="M15.8333 18.3334V17.5C15.8333 15.1989 17.6988 13.3334 20 13.3334C22.3012 13.3334 24.1667 15.1989 24.1667 17.5V18.3334L20 21.6667V24.1667" stroke="#141414" stroke-width="2.5"/>
<path d="M20 26.6666V29.1666" stroke="#141414" stroke-width="2.5"/>
</svg>
