<svg width="40" height="40" viewBox="0 0 40 40" fill="none" xmlns="http://www.w3.org/2000/svg">
<path d="M17 26C17 30.366 10 37 10 37C10 37 3 30.366 3 26C3 22.134 6.13401 19 10 19C13.866 19 17 22.134 17 26Z" fill="#30F2E2" stroke="#141414" stroke-width="2.5"/>
<path d="M37 16.8333C37 24.8377 23.5 37 23.5 37C23.5 37 10 24.8377 10 16.8333C10 9.74568 16.0442 4 23.5 4C30.9558 4 37 9.74568 37 16.8333Z" fill="#30F2E2" stroke="#141414" stroke-width="2.5"/>
<rect x="23.7017" y="11.3308" width="8.46229" height="8.46229" transform="rotate(45 23.7017 11.3308)" fill="white" stroke="#141414" stroke-width="2.5"/>
</svg>
