<svg width="40" height="40" viewBox="0 0 40 40" fill="none" xmlns="http://www.w3.org/2000/svg">
<path fill-rule="evenodd" clip-rule="evenodd" d="M10 3.33337H35V26.6667H31.7648H10C7.23858 26.6667 5 28.9052 5 31.6667V8.33337C5 5.57196 7.23858 3.33337 10 3.33337Z" fill="#30F2E2"/>
<path d="M31.7648 36.6666H10C7.23858 36.6666 5 34.4281 5 31.6666C5 28.9051 7.23858 26.6666 10 26.6666H31.7648V36.6666Z" fill="white"/>
<path d="M35 26.6667V3.33337H10C7.23858 3.33337 5 5.57196 5 8.33337V31.6667" stroke="#141414" stroke-width="2.5"/>
<path d="M36.25 36.6666H10C7.23858 36.6666 5 34.4281 5 31.6666C5 28.9051 7.23858 26.6666 10 26.6666H36.25" stroke="#141414" stroke-width="2.5"/>
<path d="M31.6667 26.6666V36.6666" stroke="#141414" stroke-width="2.5"/>
</svg>
