<svg width="40" height="40" viewBox="0 0 40 40" fill="none" xmlns="http://www.w3.org/2000/svg">
<path d="M25.5 3C27.201 3 28.8103 3.392 30.2427 4.0906L23.8333 10.5V15.5H28.8333L35.2427 9.0906C35.9413 10.523 36.3333 12.1324 36.3333 13.8333C36.3333 19.8165 31.4832 24.6667 25.5 24.6667C24.0227 24.6667 22.6143 24.371 21.3312 23.8355L8.83333 36.3333L3 30.5L15.4978 18.0022C14.9624 16.719 14.6667 15.3107 14.6667 13.8333C14.6667 7.85025 19.5168 3 25.5 3Z" fill="#30F2E2"/>
<path d="M30.2427 4.0906C28.8103 3.392 27.201 3 25.5 3C19.5168 3 14.6667 7.85025 14.6667 13.8333C14.6667 15.3107 14.9624 16.719 15.4978 18.0022C16.0333 19.2853 20.048 23.3 21.3312 23.8355C22.6143 24.371 24.0227 24.6667 25.5 24.6667C31.4832 24.6667 36.3333 19.8165 36.3333 13.8333C36.3333 12.1324 35.9413 10.523 35.2427 9.0906L28.8333 15.5H23.8333V10.5L30.2427 4.0906Z" fill="white"/>
<path d="M25.8333 3.33331C27.5343 3.33331 29.1437 3.72531 30.576 4.42391L24.1667 10.8333V15.8333H29.1667L35.576 9.42391C36.2747 10.8563 36.6667 12.4657 36.6667 14.1666C36.6667 20.1498 31.8165 25 25.8333 25C24.356 25 22.9477 24.7043 21.6645 24.1688L9.16668 36.6666L3.33334 30.8333L15.8312 18.3355C15.2957 17.0523 15 15.644 15 14.1666C15 8.18356 19.8502 3.33331 25.8333 3.33331Z" stroke="#141414" stroke-width="2.5"/>
</svg>
